/* XPM */
static char *d77437c1b58540ffc9b43d973c8b6ac4vw4EEaMxTG0E4Vk6[] = {
/* columns rows colors chars-per-pixel */
"40 32 228 2 ",
"   c None",
".  c black",
"X  c #010000",
"o  c #030102",
"O  c #0B0506",
"+  c #000D02",
"@  c #0D0802",
"#  c #150A01",
"$  c #00190A",
"%  c #00180B",
"&  c #00180C",
"*  c #011A0C",
"=  c #1C1003",
"-  c #1E1005",
";  c #101809",
":  c #1D1E09",
">  c #200E01",
",  c #2B0E01",
"<  c #271505",
"1  c #2A1706",
"2  c #3D1702",
"3  c #301B07",
"4  c #381F0B",
"5  c #00200E",
"6  c #02200E",
"7  c #002312",
"8  c #002713",
"9  c #002C16",
"0  c #053216",
"q  c #073216",
"w  c #01381B",
"e  c #00391B",
"r  c #0E3E19",
"t  c #2F260A",
"y  c #2D2B0F",
"u  c #3B2009",
"i  c #3A210B",
"p  c #3D210A",
"a  c #2B320F",
"s  c #2A380D",
"d  c #293011",
"f  c #2E3311",
"g  c #213E16",
"h  c #402207",
"j  c #482005",
"k  c #502B0A",
"l  c #502A0B",
"z  c #532C09",
"x  c #532D0A",
"c  c #65370B",
"v  c #60350F",
"b  c #743E11",
"n  c #4A3E35",
"m  c #00421F",
"M  c #0C451D",
"N  c #17491F",
"B  c #314615",
"V  c #394A19",
"C  c #004A22",
"Z  c #024A24",
"A  c #005025",
"S  c #005A28",
"D  c #085A2B",
"F  c #155322",
"G  c #275421",
"H  c #385D20",
"J  c #02602C",
"K  c #00612E",
"L  c #00622F",
"P  c #0E682A",
"I  c #1C6228",
"U  c #006B32",
"Y  c #007539",
"T  c #007B3B",
"R  c #147130",
"E  c #1C7D35",
"W  c #2D6929",
"Q  c #3F6524",
"!  c #396F2A",
"~  c #21712F",
"^  c #2D7530",
"/  c #4B591E",
"(  c #52591D",
")  c #56591D",
"_  c #58591D",
"`  c #7D4514",
"'  c #5F621C",
"]  c #4D5229",
"[  c #4A6B26",
"{  c #546221",
"}  c #526522",
"|  c #5B6320",
" . c #5E6420",
".. c #596A23",
"X. c #427D2E",
"o. c #5E7925",
"O. c #5C7328",
"+. c #597F2E",
"@. c #657D2B",
"#. c #717725",
"$. c #7D7170",
"%. c #844917",
"&. c #8D4B15",
"*. c #8A4E18",
"=. c #934F18",
"-. c #93501A",
";. c #9D551B",
":. c #A85A17",
">. c #A25B1C",
",. c #B6631D",
"<. c #AA5F23",
"1. c #B06221",
"2. c #C0681D",
"3. c #C26B23",
"4. c #C86F26",
"5. c #CF742A",
"6. c #04813A",
"7. c #10843C",
"8. c #198E3D",
"9. c #2A8D3C",
"0. c #348D3C",
"q. c #4E822E",
"w. c #448A33",
"e. c #558D32",
"r. c #40933A",
"t. c #5E9034",
"y. c #539837",
"u. c #63892E",
"i. c #70842C",
"p. c #77852C",
"a. c #728A30",
"s. c #6E9231",
"d. c #629C37",
"f. c #799733",
"g. c #5FA33B",
"h. c #6DA13B",
"j. c #70AA3F",
"k. c #7DAB3A",
"l. c #038C41",
"z. c #039645",
"x. c #1B9842",
"c. c #2D9547",
"v. c #209F45",
"b. c #11A047",
"n. c #1DA94C",
"m. c #2DA242",
"M. c #31A043",
"N. c #3EA142",
"B. c #36A945",
"V. c #3DA843",
"C. c #748447",
"Z. c #48AA42",
"A. c #59A944",
"S. c #40B046",
"D. c #4FB345",
"F. c #45B94A",
"G. c #57B545",
"H. c #59B143",
"J. c #5DB645",
"K. c #51B84B",
"L. c #5ABE48",
"P. c #63AE42",
"I. c #6BB243",
"U. c #63BA42",
"Y. c #66B944",
"T. c #6CBB43",
"R. c #6CBD44",
"E. c #7AB542",
"W. c #73B842",
"Q. c #76BB44",
"!. c #71BE44",
"~. c #73BF44",
"^. c #7DBC41",
"/. c #62C146",
"(. c #62C14A",
"). c #6EC34A",
"_. c #76C246",
"`. c #7EC146",
"'. c #7BC445",
"]. c #75C549",
"[. c #78C748",
"{. c #7ECA48",
"}. c #76D04C",
"|. c #7ED44E",
" X c #61CD50",
".X c #83892C",
"XX c #838D30",
"oX c #829830",
"OX c #889D34",
"+X c #83A439",
"@X c #97A135",
"#X c #91AC38",
"$X c #A0B03A",
"%X c #B0B63B",
"&X c #F08324",
"*X c #FA8926",
"=X c #85B942",
"-X c #89BF44",
";X c #83C442",
":X c #84C146",
">X c #88C645",
",X c #89C942",
"<X c #85CC48",
"1X c #8DCC48",
"2X c #9FC441",
"3X c #94C947",
"4X c #92CD47",
"5X c #9ECF4A",
"6X c #88D449",
"7X c #8FD64B",
"8X c #96D34C",
"9X c #9DD749",
"0X c #AFC040",
"qX c #A3CA44",
"wX c #B4CE46",
"eX c #ADD146",
"rX c #A9D84A",
"tX c #B3D347",
"yX c #BDD646",
"uX c #9FE450",
"iX c #B1EB51",
"pX c #C3D248",
"aX c #CBDB48",
"sX c #CEDF49",
"dX c #C3E04A",
"fX c #D1E44B",
"gX c #D5E94C",
"hX c #DFEB4D",
/* pixels */
"                                                                                ",
"                                                                                ",
"                                          ' |  .)                               ",
"                                    0 f.#XfXgXgXtXk.a.                          ",
"                                  6 U N.|.>XyXeX_.^.W.u.O                       ",
"                              f ( s.G G J x.T.D.~ / / W w                       ",
"                            B 3X=Xg.g.d.e.Z.S.R i.fXfX@X9 C f                   ",
"                          A n.! a ..{ ..q.Q.D.E.3XyXaXyX_ G 2X#.d               ",
"                          Z D O.0XhXfXwXf.]./.<X`.>XeX3X7Xf.u.iX[               ",
"                      O oXV a 6X4XqX9Xg.Q H H q.].~.R.>XR.'.:X_.qXy             ",
"                    ] 0XsX-XX.y.{.T.! @.%X$X%X.XX.L._.U.~.R.;X`.<X@.            ",
"                    o.rXeX4X1XV.Z.[ XXqX8XdX9XrXa.w N.L.U.Y.J.U.K.^             ",
"                  N }.>X~.>X3XR.Y.[ p.W.R.~.`.].O.. 9 9.x.m.B.(.x.&             ",
"                  w 8._.'.>X'.G.D.J.q.Q.5X~.{.t.@.+XOXQ Z 6.x.7.z.+.y           ",
"                    8 E B.M.8.v.m.Y.'.I.I.R.~.^.1X:X`.-XQ k.9X[ E 9XpX]         ",
"                  s E T 7.c.0.g.P.A.r.w.9.I.A.P.Q.h.I.^.3XqXE.=X..$XuXq.        ",
"                C.,X).^ k.5X:X=X:X).Z.P.W.R.H.T.[.K.Z._.N.H.1XJ.N h.}.I         ",
"                P  Xw.} <X;X4X{._.e.Z.m.S.B.'._.N.S 8.U.V.J.y.F L m.F.A         ",
"                7 l.6.M d.}.R.e.g J l.S Y 6.W V.l.w 9 r m M w J z.l.L 6         ",
"                  7 J J M Q G 9 C T T 8 . . m T T U % % q A U U U e             ",
"                      & %     6 % + : 2 # > t : : # . j 2 ; & & &               ",
"                                  $., ` >.v &.=.&., v z                         ",
"                                      x *X1.3.3.*.>.:.                          ",
"                                      k &X4.,.3.<.5.:.                          ",
"                                      x *X1.j =.;.5.:.                          ",
"                                      p &X,.;.1.>.4.:.                          ",
"                                    1 -.<.` 2.4.3.k :.c                         ",
"                                n x 2.%.i b =.v 2.&.v :.h p                     ",
"                              . - i 1 @ 3 3 = @ 1 3 = @ p 4 o                   ",
"                                                                                ",
"                                                                                ",
"                                                                                "
};
