/* XPM */
static char *_587c01cf8914d9ed026c6027ffdbadcmcidPFbXQsfOVQm6[] = {
/* columns rows colors chars-per-pixel */
"40 40 220 2 ",
"   c #010404",
".  c #060A0B",
"X  c #160606",
"o  c #13180C",
"O  c #040D15",
"+  c #071518",
"@  c #141718",
"#  c #1B1C1D",
"$  c #240605",
"%  c #2B0403",
"&  c #3C0705",
"*  c #29170C",
"=  c #331712",
"-  c #381716",
";  c #16210F",
":  c #1C2A12",
">  c #1D2319",
",  c #37230E",
"<  c #243315",
"1  c #323615",
"2  c #071629",
"3  c #0D1A30",
"4  c #0F2F31",
"5  c #033538",
"6  c #2D312A",
"7  c #272C32",
"8  c #283537",
"9  c #480505",
"0  c #5B0806",
"q  c #41120B",
"w  c #4D1718",
"e  c #660503",
"r  c #7A0404",
"t  c #6A1B0D",
"y  c #4F2914",
"u  c #4E3317",
"i  c #462521",
"p  c #6D312B",
"a  c #2F431C",
"s  c #344D1C",
"d  c #19493B",
"f  c #274527",
"g  c #38552A",
"h  c #366126",
"j  c #396234",
"k  c #604C1D",
"l  c #4E522C",
"z  c #445438",
"x  c #466628",
"c  c #51732D",
"v  c #5A7D31",
"b  c #507338",
"n  c #64732E",
"m  c #073155",
"M  c #323E40",
"N  c #043069",
"B  c #153868",
"V  c #20306D",
"C  c #064B50",
"Z  c #274845",
"A  c #11506F",
"S  c #14766D",
"D  c #0A6574",
"F  c #2D6076",
"G  c #4A5451",
"H  c #565553",
"J  c #587140",
"K  c #4A5963",
"L  c #585D60",
"P  c #5E6C6F",
"I  c #726F72",
"U  c #870402",
"Y  c #970302",
"T  c #A80402",
"R  c #B20503",
"E  c #A11714",
"W  c #A2251B",
"Q  c #8A3029",
"!  c #B0322A",
"~  c #CB1309",
"^  c #EE190E",
"/  c #D12317",
"(  c #EC231B",
")  c #F0332C",
"_  c #D34839",
"`  c #AC4F46",
"'  c #E65749",
"]  c #EA605A",
"[  c #558331",
"{  c #5D8433",
"}  c #559434",
"|  c #638B37",
" . c #68963B",
".. c #729D3D",
"X. c #6EAF3F",
"o. c #74A53A",
"O. c #7BC23E",
"+. c #519A58",
"@. c #749F41",
"#. c #5CA64E",
"$. c #68AD4D",
"%. c #7AAB41",
"&. c #69B446",
"*. c #72BB43",
"=. c #7BBE45",
"-. c #76B449",
";. c #7CBA4B",
":. c #6AAA55",
">. c #74AD55",
",. c #7AB353",
"<. c #7DC044",
"1. c #87C83D",
"2. c #81B544",
"3. c #82BD47",
"4. c #84BD4B",
"5. c #89BE4B",
"6. c #84B653",
"7. c #8ABB51",
"8. c #858A7C",
"9. c #F88F7E",
"0. c #84C345",
"q. c #8CC547",
"w. c #86C14A",
"e. c #8BC34A",
"r. c #90C747",
"t. c #043980",
"y. c #17448A",
"u. c #054D90",
"i. c #325482",
"p. c #027B83",
"a. c #0D728B",
"s. c #0750A3",
"d. c #046AA5",
"f. c #096EB2",
"g. c #7A7F80",
"h. c #0558C6",
"j. c #0570D5",
"k. c #0977F7",
"l. c #03868C",
"z. c #0A8F9A",
"x. c #0B9CA3",
"c. c #0CABB1",
"v. c #29B5B8",
"b. c #678D9E",
"n. c #7A8C96",
"m. c #068ECC",
"M. c #209DCB",
"N. c #0EBBC3",
"B. c #05B8D6",
"V. c #098BEC",
"C. c #059AF5",
"Z. c #2891FD",
"A. c #03A5EE",
"S. c #05A4F7",
"D. c #08B9F5",
"F. c #17B4F9",
"G. c #34A4E6",
"H. c #26B4FD",
"J. c #50A2D1",
"K. c #4D9EFE",
"L. c #5299FC",
"P. c #6EB2FD",
"I. c #13C5D0",
"U. c #05C2F5",
"Y. c #0DC4F3",
"T. c #0AD7F3",
"R. c #06D5FC",
"E. c #2EDBF5",
"W. c #1AE5E9",
"Q. c #07E6F4",
"!. c #19E8F6",
"~. c #1AECF6",
"^. c #05F5FE",
"/. c #1BF2FA",
"(. c #1AF5FA",
"). c #24F1F6",
"_. c #5BC9CD",
"`. c #6CC5F3",
"'. c #4FF1FC",
"]. c #73EAF4",
"[. c #69F7FE",
"{. c #848986",
"}. c #8E9596",
"|. c #939596",
" X c #94999A",
".X c #9C9C9B",
"XX c #9BA298",
"oX c #AEA09E",
"OX c #9A9EA4",
"+X c #9BA5A6",
"@X c #89ADB0",
"#X c #A5ACAE",
"$X c #BDBDBD",
"%X c #EA9F92",
"&X c #CFAFAA",
"*X c #85A1C8",
"=X c #86BDFD",
"-X c #C3BDC1",
";X c #8DC1C2",
":X c #B1D3D9",
">X c #8ACDF3",
",X c #95C8FD",
"<X c #A3CDFF",
"1X c #B8D8FB",
"2X c #91F7FA",
"3X c #AFE8F7",
"4X c #C8C9C8",
"5X c #CDD0CE",
"6X c #D8D6D6",
"7X c #F9D6CB",
"8X c #D8DEE4",
"9X c #DBE1E4",
"0X c #CEEBFA",
"qX c #DAF1F8",
"wX c #E9E7E7",
"eX c #EFECEE",
"rX c #EBF7FB",
"tX c #F3F4F5",
"yX c #F9FBFA",
"uX c #FDFEFE",
/* pixels */
"e.e.>.*.e.e.e.e.e.e.e.e.e.e.e.e.e.e.e.e.e.e.e.e.e.e.e.e.e.e.e.e.e.e.e.e.e.e.e.e.",
"e.e.6.;.e.e.e.e.e.e.e.e.e.e.e.e.e.e.e.e.e.0.e.e.e.e.e.e.e.e.e.e.e.e.e.e.e.e.e.e.",
"e.e.e.e.e.e.e.e.e.e.e.e.e.e.e.e.0.o.g O O O O o  .5.4.e.e.e.e.e.e.e.e.e.e.e.e.e.",
"e.e.e.e.e.e.0.e.e.e.e.e.e.e.4.4.%.G D f.B Z z.d.d  .4.e.4.5.e.e.e.e.e.e.e.e.e.e.",
"e.e.e.e.r.4.$.;.e.e.e.e.e.e.e.2.j l._.>X*X@X].F.d.Z | e.5.e.e.e.e.e.<.0.e.e.e.e.",
"e.e.e.e.e.w.,.;.e.e.e.e.e.e.e. .# _.*X4X5X4X9X`.Z.N s e.0.e.e.e.e.r.&.$.w.e.e.e.",
"e.e.e.e.e.e.r.e.e.e.e.e.e.e.5.o.= $XL g.}.L 6XqX=XA < { { | %.e.e.e.6.>.w.e.e.e.",
"e.e.e.w.e.4.e.e.e.e.e.e.e.e.e.o.> 4X{. X+Xg.wXtXqXL X y y y n 2.e.e.e.r.e.e.e.e.",
"e.e.e.e.w.4.w.e.e.e.e.e.0.X.2. .# 4X9X8X8X9XtXtXeXK & ~ ~ R u { e.e.e.w.e.e.e.e.",
"e.w.w.e.e.>.5.e.e.e.e.e.<.h < : # 5XrX=X=XtXyXeXP.B X t / T & c e.e.e.e.e.e.e.e.",
"e.e.e.e.e.w.w.w.e.e.e.7.x S c.c.x.K b.H.H.K.K.K.F.B.D   q % ; c e.e.e.e.e.r.e.e.",
"e.e.e.e.e.r.w.0.r.r.-.c S _.2X2XW.z.m.R.'.P.P.F.'./.B.m o 0 * < r.q.e.e.e.e.e.e.",
"e.e.e.e.w.4.e.<.&.w.} ; l.3X7X#X~.(.(.Q.].uXrX[.[.).T.j.% ~ e   e.r.0.0.e.e.e.e.",
"e.e.e.r.w.&.*.+.&.e.} f + @X@X4 ).~.~.Y.`.rXuXuX'.(.R.f.$ R T 9 e.<.>.6.w.e.e.e.",
"e.e.e.e.w.w.w.>.4.| d v.W.).).W././.~.Y.`.rXuXuXrXuX,Xh.X e r 9 e.;.:.e.e.e.e.e.",
"e.e.e.e.e.e.e.r.e.{ d I.(.(.~.~.~.!.Y.S.`.rXuXuXuXuX<Xh.. $ $ l e.e.e.e.e.e.e.e.",
"e.4.,.e.e.e.e.e.e.{ d m.!.~.~.!.D.D.A.d.b.tXuXuXuXuX,Xh.X e = c q.q.e.e.e.e.4.e.",
"e.5.*.e.e.e.e.e.q.[ 4 m.D.Y.Y.D.C.V.V.A 6 OXeXuXuX1XL.h.X e k  .r.e.w.e.e.w.6.e.",
"e.e.$.4.e.e.e.e.e.o.j D A.A.S.A.C.k.k.t.6 |.eXuXuXL.j.V 0 * v e.0.0.e.e.e.e.r.e.",
"e.e.e.e.e.w.e.w.e.w.@.g a.d.j.C.k.k.h.i..XwXwX3X1XJ.V e r u  .e.e.w.e.e.e.e.e.e.",
"e.e.e.e.e.e.e.e.w.e.w.%.j 2 m j.h.h.N L 6X7X&XJ.Z.y.w Y u ..4.e.e.e.e.e.e.e.e.e.",
"e.e.e.e.<.w.w.e.w.e.0.5.o.a O 3 3 3 O # ` %XoXG.C.V.t.y %.0.w.e.e.q.0.e.e.7.w.e.",
"e.e.e.e.0.&.4.e.e.e.e.e.5.l & / -X! 9 D T.].qX0X0XqXn.: w.e.e.e.7.<.*.w.e.e.e.e.",
"e.e.e.e.;.>.;.e.e.e.%.x g t R ^ ] 0 @ p.^.I.n.6XyXuX.X: ,.e.e.0.e.>.:.4.e.e.e.e.",
"e.e.e.e.e.e.e.e.e.v g o H Q Y U r H 8 l.^.z.4 {.wXuX.X: 5.e.e.e.e.e.e.r.e.e.e.e.",
"e.e.e.e.r.w.e.e.e.@ 8 m #XI 8 8 G #XG D ^.N.d O |.tXXX: 5.r.5.e.e.e.e.e.e.e.e.e.",
"e.w.w.e.r.e.e.e.e.H :XG.m n.5X6X$X8 2 z.^.Q.c.C    X.Xa 5.e.5.e.e.q.q.e.e.e.e.e.",
"e.e.e.e.e.e.e.e.e.H 5XL.V.F d Z M O u.A.^.v.F c.5 # z o.e.e.e.e.e.e.e.w.w.w.e.e.",
"e.e.e.e.e.e.e.e.e.H 5X1XH.M.x.c.z.2 s.D.).:X;XW.5   @ h 5.e.0.e.e.e.e.e.e.e.e.e.",
"e.e.e.e.e.e.e.e.w.J 8.wX1X3X].U.B.m s.S.E.].[.!.5     : 5.e.O.0.e.0.e.e.e.e.e.e.",
"e.e.e.0.e.e.e.e.5.v z 5XuXuX0X>X>Xn.i.f.D.R.Q.l.+ D C : <.;.;.X.=.<.<.7.e.e.e.e.",
"e.e.e.<.-.6.e.e.5...J {. X|. X}.}.}.I i.u.a.l.P o D S c &.;.+.#.7.*.&.7.e.e.e.e.",
"e.e.e.w.4.e.e.e.e.5...6 = - y i - 8 #XOX7 + 8  Xz 8 b =.5.e.4.5.e.e.e.e.e.r.e.e.",
"e.e.e.e.e.r.w.e.w.3...< 0 R / ' _ - .XwX` @ . > | 2.2.0.e.e.e.e.e.e.e.e.e.e.e.e.",
"e.w.e.e.e.e.0.1.&.$.@.< e R ( ' _ - O # H p * . . | r.e.e.e.e.e.e.e.4.5.e.e.e.e.",
"e.e.e.e.e.e.0.#.:.@.1 0 U Y R ) &X` & % Y / ! ` oXG c e.e.e.e.e.e.4.4.e.e.e.e.e.",
"e.e.e.e.e.e.e.:.,.{ , U Y T ~ ) %X' 0 9 T ~ ( ) 9.l s =.=.0.5.5.e.e.e.e.e.e.e.e.",
"e.e.e.e.e.e.e.e.q.{ * 9 0 U E ! ! Q = % e e U Y W q f 6.*.#.7.e.e.e.e.<.w.e.e.e.",
"e.w.0.e.e.e.e.e.e.{ ;                               f 7.=.>.5.e.e.e.e.4.-.7.w.e.",
"e.w.$.w.e.e.e.e.e.e.e.e.e.e.e.e.e.e.e.e.e.e.e.q.7.r.r.r.e.r.0.e.e.e.e.e.+.,.e.e."
};
