/* XPM */
static char *_45ce30700cf4039ff348d71af63dbeeZP0kHqcpAjjmFtIg[] = {
/* columns rows colors chars-per-pixel */
"40 40 168 2 ",
"   c #020201",
".  c #18220D",
"X  c #2C3B19",
"o  c #092228",
"O  c #09303A",
"+  c #173931",
"@  c #272929",
"#  c #343B2B",
"$  c #3A3A39",
"%  c #2F4414",
"&  c #374D1E",
"*  c #2E4926",
"=  c #344F23",
"-  c #3D5827",
";  c #274937",
":  c #3E4A3E",
">  c #2D5334",
",  c #3F5433",
"<  c #3C663A",
"1  c #454B3C",
"2  c #495936",
"3  c #4F5D3B",
"4  c #4E6E2A",
"5  c #52742C",
"6  c #476A31",
"7  c #526F30",
"8  c #557A35",
"9  c #54703A",
"0  c #154445",
"q  c #0D4C5D",
"w  c #2A5C49",
"e  c #265E57",
"r  c #336143",
"t  c #1B6A72",
"y  c #146579",
"u  c #3C636E",
"i  c #286172",
"p  c #474D40",
"a  c #58654B",
"s  c #616E51",
"d  c #686D61",
"f  c #6C6D6C",
"g  c #70706F",
"h  c #707170",
"j  c #5E8435",
"k  c #608538",
"l  c #649539",
"z  c #6A953A",
"x  c #6D9A3D",
"c  c #73B22F",
"v  c #60A231",
"b  c #74A33E",
"n  c #66BA3E",
"m  c #7BC23E",
"M  c #4B965A",
"N  c #549D58",
"B  c #59A64D",
"V  c #5CA451",
"C  c #64AA4D",
"Z  c #6CAF4E",
"A  c #77A943",
"S  c #64B344",
"D  c #6BB745",
"F  c #6CB943",
"G  c #6BB24A",
"H  c #71B747",
"J  c #7DB243",
"K  c #72BB44",
"L  c #7BBD46",
"P  c #72B44B",
"I  c #7AB64E",
"U  c #74B949",
"Y  c #7CBA4B",
"T  c #65A754",
"R  c #6BAB53",
"E  c #6DA45C",
"W  c #72AD53",
"Q  c #76AD58",
"!  c #79B452",
"~  c #788272",
"^  c #7EC144",
"/  c #84C93A",
"(  c #89CB3C",
")  c #94CD3F",
"_  c #9DD23E",
"`  c #80B343",
"'  c #82BD45",
"]  c #84BD4C",
"[  c #89BE4D",
"{  c #82B654",
"}  c #88B752",
"|  c #84B951",
" . c #8BBB51",
".. c #84C345",
"X. c #8DC546",
"o. c #8DC943",
"O. c #86C14A",
"+. c #8BC34A",
"@. c #91C846",
"#. c #91C64A",
"$. c #91C848",
"%. c #156D85",
"&. c #1A7387",
"*. c #0F89A8",
"=. c #1A92AD",
"-. c #1C9CB7",
";. c #3B92A7",
":. c #7C8D84",
">. c #5E94A4",
",. c #43A0B6",
"<. c #129FCB",
"1. c #1BA4C6",
"2. c #1DABCF",
"3. c #1DB2DA",
"4. c #1BBEE9",
"5. c #5CBAD4",
"6. c #1DC2F1",
"7. c #15C7FC",
"8. c #1CC7FB",
"9. c #16CBFD",
"0. c #1CC9FF",
"q. c #1ED4FD",
"w. c #20C5ED",
"e. c #25C8F6",
"r. c #21CAFE",
"t. c #2ACDFD",
"y. c #34CEFE",
"u. c #3CD1FF",
"i. c #42D2FF",
"p. c #4ED3FD",
"a. c #52D6FE",
"s. c #56D8FA",
"d. c #6FC9E4",
"f. c #7FD1E1",
"g. c #64D9FD",
"h. c #6CDBFD",
"j. c #73DDFE",
"k. c #7ADFFF",
"l. c #7FE0FF",
"z. c #989D97",
"x. c #8DA3A7",
"c. c #9EB8BD",
"v. c #A7A9A5",
"b. c #B5B8B7",
"n. c #BBBBBA",
"m. c #84E2FD",
"M. c #8CE3FD",
"N. c #A1E6FA",
"B. c #A5EAFE",
"V. c #ACEBFF",
"C. c #B3ECFE",
"Z. c #BCEFFF",
"A. c #C9CAC8",
"S. c #E0E0DF",
"D. c #D5E0E1",
"F. c #C0EFFC",
"G. c #C7F2FE",
"H. c #CCF3FE",
"J. c #D3F5FD",
"K. c #DBF6FE",
"L. c #E3E3E2",
"P. c #EFEEED",
"I. c #E3F8FF",
"U. c #ECFAFF",
"Y. c #F6F6F5",
"T. c #F3FCFE",
"R. c #FCFDFD",
"E. c #FDFEFE",
/* pixels */
"+.+.! H +.+.+.+.+.+.+.+.+.+.+.+.+.O.+.+.+.+.+.+.+.+.+.+.+.+.+.+.+.+.+.+.+.+.+.+.",
"+.+.{ I +.+.+.+.+.+.+.+.+.+.+.+.+.+.+.+.+.+.+.+.+.+.+.+.+.+.+.+.+.+.+.+.+.+.+.+.",
"+.+.+.+.+.+.+.+.+.+.+.+.+.+.+.+.+.+.+.+.K O.+.+.+.+.O.+.+.O.+.+.$.+.+.+.+.+.+.+.",
"+.+.+.+.+.X...+.+.+.+.+.+.O.] O.+.+.+.+.H R +.+.+.] O.+.O.+.+.+.+.+.+.+.+.+.+.+.",
"+.+.+.+.+.] Z I +.+.+.+.+.+.+.+.+.+.+.+.+.+.+.+.] +.+.+.+.+.+.+.+.+.F ..+.+.+.+.",
"+.+.+.+.+.+.! Y +.+.+.+.+.+.+.L +.^ Y +.+.+.+.+.+.+.+.+.+.+.+.+.+.#.P G | +.+.+.",
"+.+.+.+.+.+.$.+.+.+.+.+.+.+.[ o./ S ! +.+.+.+.+.O.O.+...+.+.+.+.+.+.Y ! O.+.+.+.",
"+.+.+.+.+.] +.+.+.+.+.+.+.+.+.X.C E +.+.+.+.+.O...+.^ L O.+.+.X.+.+.+.$.+.+.+.+.",
"+.+.O.+.+.Y +.+.+.+.+.+.O.X.+.+.! +.+.+.+.+.+.+./ o.F Y ..^ +.+.+.+.+.+.+.+.+.+.",
"+.O.O.+.+.Q [ +.+.+.+.+.L n +.+.+.+.+.| { +.+.#.Y P P C K F +.+.+.+.+.+.+.+.+.+.",
"+.+.+.+.+.[ O.O.+.+.+.[ ] I [ +.+.+.+.O.] +.+.+.{ I I I Y | +.+.+.+.+.+.+.o.+.+.",
"+.+.+.+.+.+.O./ +.+.+.+.#.#.[ ` k 1 $ $ $ $ 2 b ' +.$.+.$.+.+.+.+.$.+.+.+.+.+.+.",
"+.+.+.+.....+.^ F ..K ..+.+.` k a v.n.b.n.b.:.- x ' [ +.+.+.+.+.+.@...O.+.+.+.+.",
"+.+.+.+.] D L M S #.n K +.J 8 s v.P.R.R.T.C.5.t < l +.+.+.| +.+.+.O.G } +.+.+.+.",
"+.+.+.+.O.] +.W ] +...' A 8 e >.G.Y.R.R.K.g.9.3.y r l U +.O.+.+.#.U T O.+.+.+.+.",
"+.+.+.+.+.+.+.$.+.+.+.[ j + =.e.g.K.R.R.K.h.7.e.3.y % c { O.+.+.+.+.+.+.+.+.+.+.",
"+.] ! +.+.+.+.O.+.+.] | 5 O 1.q.p.K.R.R.K.h.9.r.w.&.X l ] [ +.+.+.+.+.+.+.O.| +.",
"+.[ K +.+.+.+.+.X.L J j r %.3.q.p.K.R.R.U.B.s.0.e.,.d 9 b O.+.O._ +.O.+.+.O.| +.",
"+.+.C ] +.+.+.+.+.o.v * q 4.0.y.l.I.R.R.R.R.Z.a.a.N.n.# 5 [ +.+.....+.+.+.+.+.+.",
"+.+.+.+.+.+.+.+.O.+.l 2 i y.u.m.K.T.U.I.I.I.K.H.J.U.A.p 7 A ] +.O.+.+.+.+.+.+.+.",
"+.+.+.+.+.+.+.+.O.+.2 ~ c.N.V.H.R.U.V.j.k.k.V.R.R.R.L.z.s - [ O.+.+.+.+.+.+.+.+.",
"+.+.+.+.^ Y +.+.] +.@ v.R.R.R.R.U.V.a.9.0.0.a.C.U.R.R.L.h   +.X.X.....+.+.| O.+.",
"+.+.+.+...D ] +.+.+.@ x.J.J.T.R.H.p.r.r.r.r.r.a.H.R.R.S.f   +.+. .^ H ] +.+.+.+.",
"+.+.+.+.{ Z Y #.+.$.o ;.s.h.H.R.G.u.9.r.0.r.0.i.G.R.U.D.f   +.X.+.Q Z ] +.+.+.+.",
"+.+.+.+.+.+.+.+.+.+.o *.q.r.j.G.G.i.9.r.r.r.0.i.G.H.m.f.u   X.+.+.+.+.+.+.+.+.+.",
"+.+.+.+.X.+.+.+.+.#.; t 2.0.t.M.K.j.y.9.9.0.y.h.N.j.4.=.e X O.+.+.+.+.+.+.+.+.+.",
"+.+.] +.X.+.+.+.+.+.z > y 8.t.M.R.J.l.y.u.u.l.Z.g.t.1.0 6 A O.+.O.$.$.+.+.+.X.+.",
"+.+.+.+.+.+.+.+.+.+.b = q 6.t.M.R.T.J.V.C.C.H.J.p.7.-.+ 5 +.+.+.+.+.+.O.O.+.+.+.",
"+.+.+.+.+.+.+.+.+.+.J 8 e &.d.F.R.R.R.R.R.R.R.J.s.<.t 6 z +...+.+.+.+.+.+.+.+.+.",
"+.+.+.+.+.+.+.+.+.+.X.] z 2 z.n.A.Y.R.R.R.R.L.c.;.t - A +.+.m X.+...+.+.+.+.+.+.",
"+.+.+.X.X.+.+.+.[ ] +.[ ' z 3 1 g A.L.L.L.S.v.: w < b L ^ Y U S L ^ ^ } +.+.+.+.",
"+.O.+.m G } +.+.+.+.+.#.) b k 7 9 s g f f f s 4 5 z +.X.H Y N V  .K S  .+.+.+.+.",
"+.+.+.O.] +.+.+.+.+.+.+.Q G ..+.z .         & +.+.+.+.+.O.+.] +.+.O.+.+.+.#.+.+.",
"+.+.+.+.+.+...+.O.] +.+.] O.+.+.+.+.+.+.+.+.+.$.$.o.+.+.+.+.+.+.+.+.+.+.+.+.+.+.",
"+.O.+.+.+.+.O./ G U [ +.+.+.+.+.+.X.O.+.+.+.+.+.O.+.+.+.+.+.+.+.+.+.| O.+.+.+.+.",
"+.+.+.+.+.+.X.B T } +.+.+.+.+.+.U H +.+.+.+.+.+.+.L +.+.O.+.+.+.+.] ] +.+.+.+.+.",
"+.+.+.+.+.+.+.R ! +.+.+.+.+.+.+.O.Y $.+.+.+.O...+._ ( L L ..[ +.+.+.+.+.+.+.+.+.",
"+.+.+.+.+.+.+.+.+.+.+.+.+.Y [ +.+.+.+.o.+.+.O.F K T B ! L B  .+.+.+.+.^ O.+.+.+.",
"+.O...+.+.+.+.+.+.+.+.+.+.+.+.+.+.+.+.+.+.+.+.I +.R E [ ^ W [ +.+.+.+.O.G  .+.+.",
"+.O.C +.+.+.+.+.+.+.+.+.+.+.+.+.+.+.+.+.+.+.+.+.+.#.#.X.+.$.+.+.+.+.+.+.V Q +.+."
};
