/* XPM */
static char *b76fbf5a5d2e4e8e86bef77afb6a1f3fMg4W9NPSRVKOS2M7[] = {
/* columns rows colors chars-per-pixel */
"40 40 118 2 ",
"   c #000000",
".  c #0A0A0A",
"X  c #121312",
"o  c #181817",
"O  c #1E1E1E",
"+  c gray14",
"@  c #2B2B2B",
"#  c #30302F",
"$  c #343434",
"%  c #383837",
"&  c #3A3B3A",
"*  c gray25",
"=  c #4C4C4C",
"-  c #4F504F",
";  c #50504F",
":  c #535352",
">  c #585857",
",  c #5B5B5B",
"<  c #687757",
"1  c #66705B",
"2  c #636363",
"3  c #676867",
"4  c #6C6C6B",
"5  c #73786E",
"6  c #737473",
"7  c #7B7B7B",
"8  c #7BC13D",
"9  c #4B965A",
"0  c #569E56",
"q  c #769E45",
"w  c #72934C",
"e  c #799F4C",
"r  c #6F8851",
"t  c #738F55",
"y  c #74895C",
"u  c #779353",
"i  c #5BA94B",
"p  c #63AA4D",
"a  c #6CAF4E",
"s  c #7BA749",
"d  c #63B045",
"f  c #6BB645",
"g  c #6CB14B",
"h  c #71B747",
"j  c #72BB43",
"k  c #78BD46",
"l  c #71B44C",
"z  c #79B64E",
"x  c #7CBA4B",
"c  c #67A854",
"v  c #6CAB54",
"b  c #7DA351",
"n  c #73AC54",
"m  c #72AC59",
"M  c #78B154",
"N  c #798F60",
"B  c #7C8B6B",
"V  c #7D8179",
"C  c #7DC044",
"Z  c #84C73C",
"A  c #89C93E",
"S  c #9CD23E",
"D  c #81AF4B",
"F  c #86BC47",
"G  c #83B44C",
"H  c #84BD4C",
"J  c #89BF4C",
"K  c #80A654",
"L  c #80AF55",
"P  c #83B554",
"I  c #88B752",
"U  c #84B850",
"Y  c #8BBB51",
"T  c #869C6C",
"R  c #828C77",
"E  c #82847F",
"W  c #899777",
"Q  c #869378",
"!  c #8A9979",
"~  c #84C345",
"^  c #8CC547",
"/  c #86C14A",
"(  c #8BC34A",
")  c #90C746",
"_  c #90C846",
"`  c #91C848",
"'  c #838383",
"]  c #888C83",
"[  c #888887",
"{  c #888888",
"}  c #898989",
"|  c gray54",
" . c #8B8B8B",
".. c #8B8D89",
"X. c gray55",
"o. c #8E8E8E",
"O. c #8D9188",
"+. c #92948F",
"@. c #939393",
"#. c gray58",
"$. c #979796",
"%. c #959990",
"&. c #989E93",
"*. c #989897",
"=. c #999998",
"-. c #999A99",
";. c #9A9A9A",
":. c #9C9D9C",
">. c gray62",
",. c #A0A0A0",
"<. c #A2A2A2",
"1. c #A3A3A2",
"2. c #A4A4A3",
"3. c #A6A7A6",
"4. c #A8A8A7",
"5. c #ACACAC",
"6. c #B1B1B1",
"7. c gray70",
/* pixels */
"( ( M h ( ( ( ( ( ( ( ( ( ( ( ( ( ^ ( ( ( ( ( ( ( ( ( ( ( ( ( ( ( ( ( ( ( ( ( ( ",
"( ( P z ^ ( ( ( ( ( ( ( ( ( ( q < , 4 3 3 2 1 w G ( ( ( ( ( ( ( ( ( ( ( ( ( ( ( ",
"( ( ( ( ( ` ( ( ( ( ( ( J s t R &.4 %.1.3.7 E R y e G ( ( ( ( ( _ ( ( ( ( ( ( ( ",
"( ( ( ( ( ~ ~ ( J ( J D t R &.*.1.4 1.5.7.7 [ [ O.Q y q F H ( ( ( ( ( ( ( ( ( ( ",
"( ( ( ( ( H v x J ( G y V :.4.V > & = ; : * = 3 *.:.R R b F / ( ( / j ~ ( ( ( ( ",
"( ( ( ( ( ( M x J D T %.:.V 4 $ X X X X . X X @ , 7 +.:.W b J / ( ` l g H ( ( ( ",
"( ( ( ( ( ( ` ( G T .. .3 & + .               . o # > 7 +.! K F ( ( U M / ( ( ( ",
"( ( ( ( ( H ( ( N ] ' ; O .                       . X & 6 [ B u ( ( ( ` ( ( ( ( ",
"( ( ( ( ( H ( ( 7 *.6 +                               o :  ...5 ( ( ( ( ( ( ( ( ",
"( / H ( ( n H ( 7 1.7 O                               X > 1.=.6 ( ( ( ( ( / ( ( ",
"( ( ( ( ( / / / 4  .4 O                               X > +.' 3 ( ( ( ( ( _ ( ( ",
"( ( ( ( ( ( / A 6 +.3 O                               X = ' 7 , ( ` ( ( ( ( ( ( ",
"( ( ( ( ~ ~ ( C 7 :.6 O                               X > =.X.2 ( ` ~ / ( ( ( ( ",
"( ( ( ( H f k 9 6  .3 O                               X = ' 7 , ( x g I / ( ( ( ",
"( ( ( ( / H ( n [ 7.7 O                               X - o.$.6 ` k c ( ( ( ( ( ",
"( ( ( ( ( ( ( ` 6 $.4 O                               X : 2.2.3 ( ( ( ( ( ( ( ( ",
"( H M ( ( ( ( ( 3  .4 O                               X = 7 6 , ( ( ( ( ( / Y ( ",
"( ( j ( ( ( ( ( 6 7.#.O                               X , @.7 2 S ~ / ( ( / P ( ",
"( ( p H ( ( ( ( 4 | 7 O                               X > 1.$.3 ~ / ( ( ( ( ` ( ",
"( ( ( ( ( ( ( ( 6 o.3 O                               X : ' 3 , / ( ( ( ( ( / ( ",
"( ( ( ( ( ( ( ( ' 5.7 O                               X = { o.4 ( ( ( ( ( ( ( ( ",
"( ( ( ( k x ( ( 3 ' 6 O                               X : :.:.6 ` ~ ( ( ( U / ( ",
"( ( ( ( ~ f H H 6  .2 O                               X = 6 4 , ( k l / ( ( ( ( ",
"( ( ( ( P a x ( 7 2.6 O                               X : =. .3 / m v H ` ( ( ( ",
"( ( ( ( / ( ( ( 3 7 2 O                               X , *.7 , ( ( ( ( ( ( ( ( ",
"( ( ( ( ) ( ( ( 6 *.6 O                               X : ' 7 3 ( ( ( ( ( ( ( ( ",
"( J ( ( ^ ( ( (  .4.6 O                               X : =.:.6 ( _ ( ( ( ( ~ ( ",
"( ( J ( ( ( ( ( 7  .2 +                               X = ' { 4 ( ( ( ( ( ( ( ( ",
"( ( ( ( ( ( ( ( 6 #.6 O                               X : { 7 , ( ( ( ( ( ( / ( ",
"( ( ( ( ( ( ( ( 6 :.o.O                               X : :.:.6 ( ~ ( ( ( ( ( ( ",
"( ( ( ~ ) / ( ( 3 | 7 +                               X = { o.6 k C C Y / ( ( ( ",
"( ( ( 8 l I ( ( 7 $.6 O                               X : { 7 2 Y C d Y ( ( ( ( ",
"( ( ( / H ( ` ( 6 ,.6 O                               X > ,. ., ( ( H ( ( ` ( ( ",
"( ( ( ( ( ( H ( 3  .4 O                               X : o.' 2 ( ( ( ( ( ( ( ( ",
"( H ( ( ( ( ~ Z 6 #.6 O                               X =  .o.4 ( / G / ( ( ( ( ",
"( ( ( ( ( ( ( i 6 #.6 O                               X > 1.2.6 ( H / ( ( ( ( ( ",
"( ( ( ( ( ( ( m 7 | 2 + . . .   . . . . . . . . . .   o : #.o.2 ( ( ( ( ( ( ( ( ",
"( ( ( ( ( ( ( _ ' 1.6 $ @ @ @ @ @ @ @ @ @ @ @ @ @ @ @ $ > ' 6 2 ( ( / ~ ( ( ( ( ",
"( ( ~ ( ( ( ( / 3 6 2 = : : , : : = : : : : : : : : : : > 4 6 2 ( ( ( / l Y / ( ",
"( / p / ( ( ( ( ( ( ( ( ( ( ( ( ( ( ( ( ( ( ( ( ( ` _ ( ( ` ( ( ( ( ( ( 0 M ( ( "
};
