/* XPM */
static char *_0b6728e8d134c428ebc84ee5a124aba3ACBxmmDKKy7xa1c[] = {
/* columns rows colors chars-per-pixel */
"40 40 256 2 ",
"   c #8BC34A",
".  c #8DC34B",
"X  c #8BC349",
"o  c #8DC44A",
"O  c #8CC44A",
"+  c #8CC449",
"@  c #8CC34B",
"#  c #8AC24A",
"$  c #8AC34A",
"%  c #8CC34A",
"&  c #8BC449",
"*  c #8AC24B",
"=  c #87C04B",
"-  c #8DC549",
";  c #88C14A",
":  c #8BC24A",
">  c #8BC34B",
",  c #8EC44A",
"<  c #89C24A",
"1  c #89C14B",
"2  c #89C24B",
"3  c #8CC549",
"4  c #87C249",
"5  c #8EC549",
"6  c #8BC44A",
"7  c #8DC547",
"8  c #8DC449",
"9  c #87C149",
"0  c #8DC34A",
"q  c #85BE4C",
"w  c #8BC24B",
"e  c #8AC349",
"r  c #89C348",
"t  c #8EC649",
"y  c #8CC24B",
"u  c #8FC54A",
"i  c #8EC648",
"p  c #85BC4D",
"a  c #8AC14C",
"s  c #8EC44B",
"d  c #7FC046",
"f  c #8AC14B",
"g  c #86BF4B",
"h  c #86C14A",
"j  c #8DC44B",
"k  c #7FBD49",
"l  c #88C04C",
"z  c #87BC4D",
"x  c #70B845",
"c  c #86C347",
"v  c #86C249",
"b  c #8DC647",
"n  c #85C247",
"m  c #83C247",
"M  c #7AC043",
"N  c #91C64A",
"B  c #83C048",
"V  c #8EC646",
"C  c #87BF4C",
"Z  c #78B252",
"A  c #88C347",
"S  c #85C149",
"D  c #89C14A",
"F  c #88BF4D",
"G  c #89BF4C",
"H  c #8BC646",
"J  c #80BE49",
"K  c #8EC54A",
"L  c #87C04A",
"P  c #85BF4A",
"I  c #84C246",
"U  c #7EBB4A",
"Y  c #6CAE4F",
"T  c #71B747",
"R  c #8CC14D",
"E  c #8EC34C",
"W  c #80C244",
"Q  c #89BD4E",
"!  c #8FC748",
"~  c #8CC24D",
"^  c #72BC42",
"/  c #70B54A",
"(  c #82C344",
")  c #89BC4F",
"_  c #90C846",
"`  c #8AC04C",
"'  c #84C148",
"]  c #8FC44B",
"[  c #85C443",
"{  c #8AC447",
"}  c #82B84F",
"|  c #82BF49",
" . c #89C04B",
".. c #83BB4F",
"X. c #81BD4B",
"o. c #84B555",
"O. c #8FC747",
"+. c #6FAF4F",
"@. c #90C746",
"#. c #87C642",
"$. c #8CC04D",
"%. c #84B850",
"&. c #72AC59",
"*. c #89BA50",
"=. c #82BB4B",
"-. c #84BE49",
";. c #7EB94C",
":. c #81C047",
">. c #86BD4E",
",. c #8BC448",
"<. c #80B94D",
"1. c #83BD4C",
"2. c #87C444",
"3. c #83BC4E",
"4. c #7ABB48",
"5. c #8ABF4D",
"6. c #6CB943",
"7. c #7ABD46",
"8. c #7DB64F",
"9. c #82C047",
"0. c #7FC144",
"q. c #7EC142",
"w. c #7BB84D",
"e. c #70B24C",
"r. c #7EC342",
"t. c #7AC33F",
"y. c #8BBA51",
"u. c #95CE3F",
"i. c #85BD4D",
"p. c #81C146",
"a. c #6BB645",
"s. c #74BB44",
"d. c #9FD33D",
"f. c #78BB46",
"g. c #76BF41",
"h. c #69AC51",
"j. c #73BB42",
"k. c #79B650",
"l. c #8CC448",
"z. c #7DBF46",
"x. c #78BE44",
"c. c #6DAD50",
"v. c #7AB550",
"b. c #71AF52",
"n. c #8CBB51",
"m. c #91C848",
"M. c #88CC3A",
"N. c #7CBF45",
"B. c #62AB4E",
"V. c #78B057",
"C. c #7BC43A",
"Z. c #63A84B",
"A. c #79B64E",
"S. c #71BB42",
"D. c #6CB14B",
"F. c #7BC13D",
"G. c #8BC446",
"H. c #73B44D",
"J. c #68AF4C",
"K. c #569E56",
"L. c #80AF55",
"P. c #7EB84E",
"I. c #77BA49",
"U. c #85B454",
"Y. c #71B848",
"T. c #8AC34B",
"R. c #82B952",
"E. c #70BD41",
"W. c #7DAF55",
"Q. c #67A854",
"!. c #81B84F",
"~. c #76BA44",
"^. c #95CD42",
"/. c #80B753",
"(. c #6BB349",
"). c #8BC549",
"_. c #80B752",
"`. c #8AC04E",
"'. c #8ECC3D",
"]. c #99D03F",
"[. c #73B74A",
"{. c #86C640",
"}. c #85BC4F",
"|. c #85BA52",
" X c #7DC144",
".X c #88B752",
"XX c #5BA94B",
"oX c #84CC36",
"OX c #7DBC49",
"+X c #6EAA57",
"@X c #68A856",
"#X c #84C73C",
"$X c #6AB34A",
"%X c #75B64A",
"&X c #8CBF4D",
"*X c #65AA4E",
"=X c #7BB54E",
"-X c #65B445",
";X c #7AB352",
":X c #6AA05D",
">X c #82C83A",
",X c #8BC941",
"<X c #65B541",
"1X c #7EBD49",
"2X c #69B645",
"3X c #63B045",
"4X c #7FBC49",
"5X c #6EB14E",
"6X c #73B350",
"7X c #76B64D",
"8X c #8EBC51",
"9X c #80BB4D",
"0X c #8BC14B",
"qX c #78B84B",
"wX c #62B73F",
"eX c #8DC744",
"rX c #74A855",
"tX c #59AD45",
"yX c #5CA451",
"uX c #529B59",
"iX c #71BE3A",
"pX c #85C346",
"aX c #6AB744",
"sX c #80B653",
"dX c #7BBB4B",
"fX c #86CC37",
"gX c #83B651",
"hX c #72B847",
"jX c #7CC042",
"kX c #8EC844",
"lX c #92C944",
"zX c #82C442",
"xX c #7BBC47",
"cX c #65AC4E",
"vX c #88BA50",
"bX c #78B44E",
"nX c #83C148",
"mX c #69BC3C",
"MX c #78BC47",
"NX c #4B965A",
"BX c #64B344",
"VX c #89C93E",
"CX c #6ABA41",
"ZX c #7AB94B",
"AX c #61AD4A",
"SX c #74BF3E",
"DX c #60AF48",
"FX c #5FAD48",
"GX c #68AD4D",
"HX c #77BD44",
"JX c #5CA64D",
"KX c #6DB845",
"LX c #63A654",
"PX c #54A34F",
"IX c #6FA75B",
"UX c #7EB452",
/* pixels */
"  @ V.x , $                             %                                       ",
"  + o.A.{                               $ %                     7               ",
"    3 -   % @ X             2 $         S.L       O ;   $ D     @.+ % $         ",
"    : # @ c [ E #         # 1.=       6 x c.f   2 g = 5 L =     * $ < j X       ",
"        , X.J.;.y           # ,   j o X $  .:   = D   $ 1       % 4 E.I y $     ",
"        O l Z P.O           O 7.1 W OX$.& 6           .       # # u H.D.p O     ",
"          X ! 5             a ,X>X-X=X.       % l = > 0.@ $   + # 8 ..Z q O     ",
"      # % -.<             > # 7 *X:Xy       @ n W E 0.jX; 0   7     - i O       ",
"  # < # $ ;.#         o c 2.o 2 ;X` &   -       fXkX6.xXzXz.% #       #         ",
"% ; = O & rXG 8     e R d <X~ X i   + }._.+ # u w./ e.cXhXaX] $   X       *     ",
"        & z ; v $ $ + Q P 7X` & #     = ..    O sXk.k.v.dX3.O     * $     _ X   ",
"        % u 9 VXN   9 3 O N &         O -       b t i t K -     + O.@ +   +     ",
"      . d 9.+ x.CXnX^ S % #       #             : # # # #       # d.W P @       ",
"      , J x MXNXBXN mX^ ] $   @   l R.    @         % @ # |.&   O X.h.U. .6     ",
"      O = i.# b.p 0 p.nX% . ' d .   :     [ o     . d p.@ f   $ u s.Q.$.$   :   ",
"    X   O 8   m.- $ . % # , j.U K $   $ K C.k , X a '.oXo.1       O O       3   ",
"O g L.@   #   # # % w %   O 1Xq +       O k q O     7 ~.z a     2 >       * >.$ ",
"% h ^ # $     $ 5 z.pX9 0X  , +     # #   , +       * w.A O 6 l ].G.C % O C } # ",
"% 4 Z.g         o eXiX8.Q & #       @ # D $         X 5 % # $ y #.B f       3   ",
"    . %   $   ; ; 4 4XQ X           v -       +       # + } p + 2 < $       #   ",
"    $   % @   ; L   j &             6.[.    C p   $               * O $   O     ",
"    $ .  XJ G - P # 3             < J 9X    ; z   % $ % %     > ,.{.S O & %.F + ",
"      . ( a.=.w     8 > $           o -       + $ n s S 4 O   X $.q.T F O 2 #   ",
"      - /.+.4.. $   r { . $         $ @   %   # . t.W 2X8.`   X `.&.Y =.o       ",
"        > o %   $ , k T 4 % $ % % $ > m % v <   s 7.tX5X) # O   + 8 o O         ",
"  % O   V $       - 3.b.U o > 4 r a u.M.~ x.DXN b q 6Xi.#   ;   :           #   ",
"  = =   V           O 5 O     r SX7 j.ZX( M GXvX3 + 5 + % ; L % # i O.  # # 7 + ",
"  * 1   *             $     $ s jXg.AXFX/ a.n.gX6 # $ :   % .     $   # = # +   ",
"  % O               X   X     % ' T c.+.c.bX5.3           e I >   %   #   2 *   ",
"      ; T.      < 9 i   1 :       s 5 t t 5           $ % E t.c % c e %         ",
"  $ @ {.H w   % = q % * ^.l.#   $ $ # # # $ 5       . I r.<.qXwX4.M M *.#       ",
"# ; s F.e..X$         w u.f.                + 9       r x U uXyX8Xg.3Xy.).      ",
"    % L p : o   % 0 X ~ &.(.0.. $           * e +     $ L . 1.>.o 4 L % * @.8   ",
"      % + O d > h :.@ & F g r     0 %         _ lX- $   O   - 3   % t     +     ",
"% = #     w 2.#X$X%X&XX + O   $ O n nX0       * 2 $ % $           1 !.;         ",
"          @ A XX@X%.+     8 + o I.Y.e w     % % @ HXr ] $     :   -.q <         ",
"            a +XZ %     # & 3 0 | J u 7   0 nXI 1 d.M.N.N.W ) 1   O 3 j % &     ",
"  % %         ! t       < <.z & % O + V   % 4 KXf.LXPXUXs.JXy.& :   . :.c 5.    ",
"% 9 9.o $     # #         f 1         *     O v.` h.IXn.d b.) &     o | / vXG 6 ",
"o B B.y                     6                 5 O m._ l.o ! &         e K.W.O   "
};
