/* XPM */
static char *_ae107052cd044cb9130588d9ca90c35P0vzlr9DQ3vjlyYi[] = {
/* columns rows colors chars-per-pixel */
"40 40 215 2 ",
"   c #020301",
".  c #020B03",
"X  c #0B0C03",
"o  c #100D02",
"O  c #031306",
"+  c #061A08",
"@  c #161807",
"#  c #231D02",
"$  c #241E17",
"%  c #04230B",
"&  c #0B270A",
"*  c #052C0D",
"=  c #14250C",
"-  c #1B260F",
";  c #1A280C",
":  c #05330F",
">  c #09310E",
",  c #17370B",
"<  c #1C2911",
"1  c #0A3610",
"2  c #063810",
"3  c #0A3D11",
"4  c #163612",
"5  c #282905",
"6  c #342A03",
"7  c #373507",
"8  c #343308",
"9  c #262B15",
"0  c #2E3111",
"q  c #283715",
"w  c #382C22",
"e  c #393326",
"r  c #303132",
"t  c #463A00",
"y  c #45391C",
"u  c #443729",
"i  c #0B4413",
"p  c #0C4A15",
"a  c #144B14",
"s  c #194818",
"d  c #0E5418",
"f  c #0E591A",
"g  c #125417",
"h  c #125519",
"j  c #125C1B",
"k  c #264519",
"l  c #334C11",
"z  c #374A1A",
"x  c #0E601D",
"c  c #13631C",
"v  c #16691D",
"b  c #1D741F",
"n  c #2D6917",
"m  c #386A14",
"M  c #277A1E",
"N  c #337B1E",
"B  c #2B4822",
"V  c #3B5B21",
"C  c #126D20",
"Z  c #087024",
"A  c #127422",
"S  c #1A7520",
"D  c #137A24",
"F  c #37662E",
"G  c #217B21",
"H  c #4B4202",
"J  c #474908",
"K  c #574D03",
"L  c #5D5809",
"P  c #5F4F19",
"I  c #4A5311",
"U  c #625201",
"Y  c #685501",
"T  c #6C5B03",
"R  c #725F00",
"E  c #5A6809",
"W  c #4C6619",
"Q  c #586319",
"!  c #6B690D",
"~  c #776804",
"^  c #7C7105",
"/  c #5A4827",
"(  c #4C542B",
")  c #4E4232",
"_  c #6B572E",
"`  c #6C5330",
"'  c #496827",
"]  c #52732C",
"[  c #567A2E",
"{  c #5B7B2C",
"}  c #537832",
"|  c #7A6534",
" . c #6F5E46",
".. c #6C5B48",
"X. c #77684E",
"o. c #FA3E18",
"O. c #857402",
"+. c #8A7903",
"@. c #88740F",
"#. c #967D03",
"$. c #8C762E",
"%. c #FB4D24",
"&. c #FD6436",
"*. c #8E794E",
"=. c #2B811F",
"-. c #35831D",
";. c #168026",
":. c #48881A",
">. c #588E17",
",. c #589319",
"<. c #6A8E11",
"1. c #5D8432",
"2. c #599B36",
"3. c #618736",
"4. c #648B34",
"5. c #699438",
"6. c #6E9A3A",
"7. c #739F35",
"8. c #719D3B",
"9. c #74A43E",
"0. c #76AA3E",
"q. c #519A58",
"w. c #68994D",
"e. c #66AA4C",
"r. c #7AAC42",
"t. c #69B447",
"y. c #71BA43",
"u. c #7BB749",
"i. c #6BAA53",
"p. c #75AD54",
"a. c #79B253",
"s. c #7FC145",
"d. c #878507",
"f. c #9A8704",
"g. c #81960E",
"h. c #899D11",
"j. c #A58B03",
"k. c #AA9503",
"l. c #AE9A00",
"z. c #B49B02",
"x. c #94AE10",
"c. c #A7AC0B",
"v. c #B5A502",
"b. c #A3B30E",
"n. c #ACB40A",
"m. c #B6B409",
"M. c #BABC0A",
"N. c #C0A200",
"B. c #CDAB00",
"V. c #D1AE00",
"C. c #CDBA01",
"Z. c #DDBA08",
"A. c #C1A518",
"S. c #E1BE01",
"D. c #D7BB27",
"F. c #BBC90A",
"G. c #85C83C",
"H. c #9CD23E",
"J. c #C8C609",
"K. c #E5C400",
"L. c #E9C901",
"P. c #F3CD00",
"I. c #F5D500",
"U. c #FCD400",
"Y. c #FEDB00",
"T. c #F0D20F",
"R. c #FEE200",
"E. c #FDE900",
"W. c #C3C834",
"Q. c #9A845C",
"!. c #82B544",
"~. c #85BB47",
"^. c #85BD4B",
"/. c #89BF4A",
"(. c #80AF55",
"). c #86B753",
"_. c #9A9B68",
"`. c #A9966C",
"'. c #AB9A70",
"]. c #B99F75",
"[. c #B7A079",
"{. c #DBBD53",
"}. c #FB9766",
"|. c #E3A07D",
" X c #83C245",
".X c #8CC447",
"XX c #8AC841",
"oX c #87C14A",
"OX c #8BC34A",
"+X c #8DC44A",
"@X c #90C847",
"#X c #F5D459",
"$X c #F9E055",
"%X c #2C7B9E",
"&X c #298EBC",
"*X c #2196D2",
"=X c #12A9F4",
"-X c #7DC5D4",
";X c #75CAE7",
":X c #8F9683",
">X c #B8B08B",
",X c #B6B8A8",
"<X c #D2B989",
"1X c #88C193",
"2X c #85C9B4",
"3X c #D8C795",
"4X c #E5C48F",
"5X c #E9CB95",
"6X c #F0CD96",
"7X c #F7D89B",
"8X c #CBD1B5",
"9X c #ECDEAE",
"0X c #FADAA2",
"qX c #FBE4A7",
"wX c #84C8DF",
/* pixels */
"OXOXp.y.OXOXOXOXOXOXOXOXOXOXOXOXOXOXOXOXOXOXOXOXOXOXOXOXOXOXOXOXOXOXOXOXOXOXOXOX",
"OX+X).u.OXOXOXOXOXOXOXOXOXOXOXOXOXOXOXOXOXOXOX+XOXOXOXOXOXOXOXOX+XOXOXOXOXOXOXOX",
"OXOX+X+XOXOXOXOXOXOXOXOXOXOXOXOXOXOXOXOXy./.OXOXOXOX/.OXOXoXOXOX@XOXOXOXOXOXOXOX",
"OXOXOXOXOXOXOXOX/.~.r.W J 4.r.oXOXOXOXOXy.i.OXOX9.W t 6.u.oXOXOXOXOXOXOX+XOXOXOX",
"OXOXOXOX+XoXe.u./.r.( ~ j.l 4.OXOXOXOXOXOX/.OXr.z ~ l.q 3././.OXOXOXy.s.OXOXOXOX",
"OXOXOXOXOXoXa.a.r.W ~ O.T { 0.u.OXs.^./.OXOXOX~.4.Q ~ j.Q ] /.OXoX@Xa.t.oX+XOXOX",
"OXOXOXOXOXOX@X@X4.8 k.O.9 ] u.XXG.t.a.+XOXOXOX/.6.q 5 I.Y q /..XOXOX^.a.oXOX+XOX",
"OXOXOXOXOXoXOXOX4.8 l.+.@ @ { .Xe.q./.~.~.~./.0.z @ 6 Y.U q /..XOXOXOX+XOXOXOXOX",
"OXOXOXOXOXu.OXOX4.8 l.L.B.V.K - - - - - - - - 5 j.B.B.R.U q ~..XOXOXOXOXOXOXOXOX",
"OXOXoXOXOXp.oXOX4.8 l.Y.Y.Y.j.T R R R ~ R R T O.Z.Y.Y.E.K q /.OXOXOXOXOXOXOXOXOX",
"OXOXOXOX+XoXOXoX5.7 j.L.K.P.Y.R.Y.R.Y.R.R.R.R.Y.U.P.Z.I.L q .XOXOXOXOXOXOX@XOX+X",
"OXOXOXOXOXOXoX XOX8.z X t C.I.I.U.U.U.U.U.U.U.P.I.^ o @ { ~./.OXOX@XOX+XOXOXOXOX",
"OXOXOXOXs.oXOXs.2.W ^ H @ K B.Y.U.U.U.U.U.U.U.L.O.6 o f.Q ] .XOXOX@XXXoXOXOXOXOX",
"OXOXOX@Xs.y.y.q.} 8 l.z.t X T N.Y.U.U.U.U.U.S.j.# 5 T E.Y 9 .XOXOXoXi.).OXOXOXOX",
"OXOXOXOXoX).OXp.1.8 l.L.j.y w P C.P.U.U.U.S.f.y w ~ B.R.K q /.OXOXy.i.OXOXOXOXOX",
"OXOXOXOXOXOXOX@X4.8 l.f.P '.[.Q.t V.U.U.L.#._ `.>X| H R.U q /.OXOXOXOXOXOXOXOXOX",
"OX^.a.OXOXOXOXOX3.6 v.~ w 3XqX5XQ.T Y Y T $.].0XqXX.@ R.U 9 /..XOXOXOXOXOXoX^.oX",
"OXOXy.OXOXOXOXOX9.I d.K e 4X8X,X`...u ) ) :X,X].5XX.o z.Q ' /./.H..XoXOXOXoX).OX",
"OXOXe.~.OXOXOXOX~.7.l @ e <X;X&X$ ].9X3X3X-X%Xr <XX.O # { r./.OX.X~./.OXoXOXOXOX",
"OXOX+XOXOXoXOXoX~.9.q T D.7X;X=X*X8XqX0X9XwX=X&X8X#Xz.X { ).^.OXOX8.q @ < < OXOX",
"OXOXOXOXOXOXOXoXoX!.[ ! @.Q._.2X;X|.}.}.}.,XwX1X_.$.@.z 6.OXOX/.8.z @ w 0 . OXOX",
"OXOXOXOXs. XOXOX^.oX~.' .   f.T.0X&.o.o.%.}.#XZ.6   ; ~.OX.XOX~.'   o | ` o oX+X",
"OXOXOXOXXXt.^.oXoXr.z i g @ X ) 0X6X6X6X6X7X_.9 o 3 c . 1.~./.~.] w $.y X X OXOX",
"OXOXOX+Xa.i.u.OX9.V s 2 k O.+.@..... . .....| O.f.K 2 p k ] !.] ) / u @ 9 ' OXOX",
"OXOXOXOXOXOX/.r.' > i l L n.F.c.t = + + % 5 ~ n.F.+.t f 2 4 { I ` _ z q ] ~.OXOX",
"OXOXOXOXOX^.8.V > g 8 ^ c.>.;.,.P.>.G N :.c.b.-.=.h.m.6 a d < ` / z 6.!.~.OXOXOX",
"OXOXOXOX@X!.z s p , +.<.<.b.-.:.Y.J.M.M.M.L.c.-.x.<.<.M.J * h 9 ( 9.~.OXoXoX.XOX",
"OXOXOXOX6.z i 3 B *.{.W.h.^ m =.h.L.Y.Y.I.M.>.M E d.b.$X`...3 3 k [ r.OXoXOXOXOX",
"OX+XOX5.V & C 1 ) 5X0X{.#.# m :.A x.M.M.n.,.-.:.; U A.7X7X].+ g h q 1.r.OXOXOXOX",
"OXOXOX@ i A A 2 u 4X0X*.#   f.n.Z M M M M b ,.M.6 o w 6X7X].O g A h > 1.~.OXOXOX",
"OXOX/.  1 D A C s e u B p . n n . + + + O O , m = : j w u q g v D f & { ~.OXOXOX",
"OXOX+X  1 D A A j : % 2 1 . E <.Y , * > > J ! <.; % i % * i A A D j + } oXOXOXOX",
"OXOXOXX 1 A A A A D ;.3   . k.Y.Y.:.Z D G b.R.K.7     D ;.D A A A f = 1.OX+X+X+X",
"OXOXOX^.' O C A A A A 2 + f S G M % . . + a M b v : . A A A A A i q 6.~.OX+XOXOX",
"OX^.OXOX] . x D A C p O 5 g.x.<.: 2 i i 3 2 m g.x.I   : j A A A 3 q w.~.OXOXOXOX",
"OXOXOXOX' . d C C p + O l c.J.f.  a c x f % H n.J.! +   1 c A j > q 6. XOXOXOXOX",
"OXOXOXOX[ @ = p j = X : j v b a   @ < ; ; X & v b v g   o 4 C 4 @ z r.~.OXOXOXOX",
"OXOXOXOXr.1.1.V k ] < O % % % O   ' 1.4.1.q O % % % %   V F 1 ' 1.6.^.s.oXOXOXOX",
"OXOX^.OXOXOXOXOXOXOXOXOXOXOX.X.XOXOXOXOX.XoXOXa. Xe.p.).s.p.^.OXOXOXOXoXt.).OXOX",
"+XoXe.OXOXOXOXOXOXOXOXOXOXOXOXOXOXOXOXOXOXOXOX@X.X@X+XOXOX@XOXOXOXOXOXOXq.(.+XOX"
};
