/* XPM */
static char *c4e56d9a9d094ca2e1575fdf39f0bac0T3L1DwrHBuKBF4E8[] = {
/* columns rows colors chars-per-pixel */
"40 40 195 2 ",
"   c #030201",
".  c #070906",
"X  c #0C0B05",
"o  c #140507",
"O  c #120B0B",
"+  c #0F1309",
"@  c #131309",
"#  c #161D0B",
"$  c #18180A",
"%  c #1A0D12",
"&  c #0F1213",
"*  c #081514",
"=  c #211D0D",
"-  c #200F17",
";  c #221517",
":  c #28141B",
">  c #10230C",
",  c #1B250E",
"<  c #1A2711",
"1  c #113512",
"2  c #153C14",
"3  c #26260C",
"4  c #2D2E0F",
"5  c #2F300F",
"6  c #2F2A11",
"7  c #372E18",
"8  c #243213",
"9  c #263517",
"0  c #2A3418",
"q  c #343515",
"w  c #3C3C12",
"e  c #341924",
"r  c #3A1D29",
"t  c #05282B",
"y  c #1B3320",
"u  c #4B3D22",
"i  c #4B2534",
"p  c #562B3C",
"a  c #164117",
"s  c #2B4219",
"d  c #36481B",
"f  c #39511E",
"g  c #1F5B20",
"h  c #324D2D",
"j  c #3A5623",
"k  c #29722B",
"l  c #376336",
"z  c #414113",
"x  c #494718",
"c  c #5B5B1C",
"v  c #62611F",
"b  c #4B4723",
"n  c #574524",
"m  c #435D24",
"M  c #54542A",
"N  c #654D28",
"B  c #685A2D",
"V  c #675730",
"C  c #476726",
"Z  c #496627",
"A  c #4D6D2A",
"S  c #516B28",
"D  c #4D7321",
"F  c #53732C",
"G  c #577C32",
"H  c #6C6E23",
"J  c #706C25",
"K  c #757725",
"L  c #776737",
"P  c #083B49",
"I  c #093D51",
"U  c #5B2E40",
"Y  c #5D3043",
"T  c #643246",
"R  c #663349",
"E  c #69354C",
"W  c #0B4352",
"Q  c #19585C",
"!  c #2B474B",
"~  c #1B6C5B",
"^  c #0A5769",
"/  c #0A5F76",
"(  c #086677",
")  c #4B635A",
"_  c #826739",
"`  c #8A7838",
"'  c #F9693B",
"]  c #FD703F",
"[  c #8E7742",
"{  c #FB7943",
"}  c #349A36",
"|  c #3CB33E",
" . c #5D8131",
".. c #638636",
"X. c #638B35",
"o. c #699237",
"O. c #699338",
"+. c #6E9A3B",
"@. c #729F3B",
"#. c #73A23E",
"$. c #79AB3F",
"%. c #6BB43C",
"&. c #7BC23E",
"*. c #3DB740",
"=. c #549D58",
"-. c #5CA84C",
";. c #5CA451",
":. c #65A84D",
">. c #6CAF4E",
",. c #77A946",
"<. c #7BAC41",
"1. c #69B248",
"2. c #71B746",
"3. c #7CB647",
"4. c #73BB43",
"5. c #72B44B",
"6. c #7CBA4B",
"7. c #6AAB54",
"8. c #6BA858",
"9. c #74AC56",
"0. c #78B253",
"q. c #4AC94C",
"w. c #7DC144",
"e. c #848429",
"r. c #88892B",
"t. c #95952D",
"y. c #9D9D31",
"u. c #A3A334",
"i. c #ADAD36",
"p. c #B6B638",
"a. c #96CD3F",
"s. c #C4C43E",
"d. c #9C8246",
"f. c #A8884C",
"g. c #BD9A57",
"h. c #81B545",
"j. c #84BC46",
"k. c #86BB48",
"l. c #85BD4B",
"z. c #89BE4B",
"x. c #84B752",
"c. c #8BBB51",
"v. c #AD9C64",
"b. c #B1A269",
"n. c #C39D57",
"m. c #F7834A",
"M. c #FA9452",
"N. c #C8A35B",
"B. c #D2AA5F",
"V. c #FBA45B",
"C. c #CCA861",
"Z. c #D5AC62",
"A. c #F6AD61",
"S. c #E9BD69",
"D. c #FBBA68",
"F. c #E3BB78",
"G. c #84C345",
"H. c #8CC546",
"J. c #86C14A",
"K. c #8BC34A",
"L. c #91C846",
"P. c #CBCB40",
"I. c #D4D443",
"U. c #D9D648",
"Y. c #E3E347",
"T. c #E6E648",
"R. c #EBEB4B",
"E. c #F5F54D",
"W. c #F7F84D",
"Q. c #FAFA4E",
"!. c #EBC66E",
"~. c #F5C56E",
"^. c #F8C76D",
"/. c #E9C877",
"(. c #F5C471",
"). c #FCCC71",
"_. c #FBD374",
"`. c #0B758A",
"'. c #12738A",
"]. c #127590",
"[. c #108A99",
"{. c #168CAF",
"}. c #1595BB",
"|. c #179DC5",
" X c #19A7CC",
".X c #1BB4DA",
"XX c #1DC5F6",
"oX c #1DC6F9",
"OX c #1ECDFC",
"+X c #1FD1FD",
"@X c #5BD2DE",
"#X c #6BD2D8",
"$X c #ABD5B3",
"%X c #C7C991",
"&X c #8BD0C1",
/* pixels */
"K.K.9.2.K.K.K.K.K.K.K.K.K.K.K.K.K.K.K.K.K.K.K.K.K.K.K.K.K.K.K.K.K.K.K.K.K.K.K.K.",
"K.K.x.6.K.K.K.K.K.K.K.K.K.K.K.K.K.K.K.K.K.K.K.K.K.K.K.K.K.K.K.K.K.K.K.K.K.K.K.K.",
"K.K.K.K.K.K.K.K.K.K.K.K.o.f C m m m m m j +.K.H.J.K.l.K.K.K.K.K.L.K.K.J.K.K.K.K.",
"K.K.K.K.K.G.H.K.K.K.k.K.G +     3 z z d X d +.o.O.o.,.K.j.l.K.K.K.K.K.L.K.K.K.K.",
"K.K.K.K.K.l.7.6.K.K.K.K.h.X.+ 4 y.W.W.R.z 5 q 5 5 q F #.#.#.j.K.K.J.4.G.K.K.K.K.",
"K.K.K.K.L.K.0.6.K.K.K.h.F # 4 u.R.W.Q.Q.I.s.P.s.s.s.K d q < +.K.J.L.0.>.l.K.K.K.",
"K.K.K.K.K.K.K.K.z.K.z.D , = u.R.W.W.W.Q.Q.Q.Q.Q.Q.Q.s.u.r.. X.H.G.K.c.0.J.K.K.K.",
"K.K.K.K.K.J.K.K.K.h.F # 5 y.W.Q.W.Q.Q.Q.r.K K t.E.Q.Q.Q.I.X +.H.J.K.H.K.K.K.K.K.",
"K.K.K.J.K.6.z.,.X.F , 5 t.W.W.Q.s.s.T.i.n n 7 3 y.T.Q.Q.s.X C $.K.K.K.K.K.K.K.K.",
"K.J.J.K.K.9.h.A $ # $ i.E.W.W.U.K e.i.5 B./.f.O 5 i.T.E.Y.3 + m K.K.K.K.K.J.K.K.",
"K.K.K.K.K.z.j.C c I.R.E.Q.W.Y.M [ _.).S.^.^.D.S.Z.n X J R.T.z f K.K.K.K.K.L.K.K.",
"K.K.K.K.K.J.j.D 3 v v s.Q.W.U.w 6 n _ S.~._.n.N N _ 7 v R.Q.d m K.L.K.K.K.K.K.K.",
"K.K.K.K.G.J.k.C       i.Q.T.y.B ! P ) S.^.).v.I ! b.B v R.W.e.c X.L.G.K.K.K.K.K.",
"K.K.K.K.w.2.2.l < , + i.Q.I.u C.$X@X&X/.^.^.%X@X#X%XN v R.s.s.H   6.>.x.K.K.K.K.",
"K.K.K.K.J.c.J.7.,.X., p.R.U.S.D././.F.(.^.).S.F./.(.L J p.4 q 8 < 4.8.K.K.K.K.K.",
"K.K.K.K.K.K.K.K.H.#., p.i.c S.).(.M.{ D.).).V.] D.).Z.` x   A X. .K.K.K.K.K.K.K.",
"K.z.0.K.K.K.K.K.G.h. .H w X V Z.).A.m.' ' ' ' M.~.~._.d.@   o.K.J.K.K.K.K.J.J.K.",
"K.J.4.K.J.K.K.K.K.6.j.F j d = g._.).D.{ ] { M.).).).N.L j   X.z.a.K.J.K.K.J.x.K.",
"K.K.:.J.K.K.K.K.L.H.%.0.h.,.7 f.S.Z.Z.Z.Z.Z.Z.Z.Z.Z.V S <., +.K.G.J.K.K.K.K.K.K.",
"K.J.K.K.K.K.K.K.J.K.j.k.k.k.,.0                     F l.k.6.l.K.K.J.K.K.K.K.K.K.",
"K.K.K.K.H.K.K.K.J.K.K.z.k.<.h [.|.}.}.}.}.}.}.}.}.}.Q G h.z.K.K.K.K.K.K.K.K.K.K.",
"K.K.K.K.w.6.J.K.J.K.G. .A l ( `. XOXOXOX+XOXOXOXXX{.`.~ G z.K.K.K.G.J.K.K.x.K.K.",
"K.K.K.K.J.2.j.K.H.h.o.M b h [.t '.oXXXoXoXoXoXoX.XW / ( M ..h.K.K.w.5.J.K.K.J.K.",
"K.K.K.K.0.>.6.K.K.#.8 f./.g.* * ].oXoXoXoXoXoXOX.XP . b f.b ..<.J.9.>.l.K.K.K.K.",
"K.K.K.K.K.K.K.K.K.@., f.!.n.@ * ].oXoXoXoXoXXXXX.XW . # u g.b Z K.K.K.K.K.K.K.K.",
"K.K.K.K.L.K.K.K.K.#., 7 u b G y ].OXOXOXOXOXOXOX.XW d f + u @ j K.K.K.K.K.K.K.K.",
"K.J.J.K.K.K.K.K.K.<.F S C F $.9 P ( / / / / / ( ^ t F @.S C Z X.K.K.L.K.K.K.L.K.",
"K.K.K.K.K.K.K.K.K.K.J.k.k.z.$.8 o o o o o o o o O X S j.k.z.z.K.K.J.K.K.K.K.K.K.",
"K.K.K.K.K.K.K.K.K.K.J.z.K.z.<.0 r E R R R R R E Y : A l.K.z.j.K.J.K.K.K.K.K.K.K.",
"K.K.K.K.K.K.K.K.K.K.H.K.z.K.<.0 r R i % % O : T p ; A J.K.K.&.G.K.G.K.K.K.K.K.K.",
"K.K.K.G.K.K.K.K.z.l.K.z.a.H.<.9 r E i O Z 8 % R p ; A j.w.6.3.%.6.w.w.c.K.K.K.K.",
"K.K.K.w.5.c.K.K.K.K.K.K.a.4.$.9 r E i O h.f ; R p ; A G.1.6.=.;.K.w.-.c.K.K.K.K.",
"K.K.K.J.J.K.K.K.K.K.K.K.9.>.%.0 : i e X <.f - E U ; A k.J.K.c.J.K.J.J.K.K.L.K.K.",
"K.K.K.K.K.K.w.K.J.J.K.K.J.J.,.8 + < & . <.f % p p ; A z.K.K.K.H.K.K.K.K.K.K.K.K.",
"K.J.K.K.K.K.G.G.>.5.K.K.K.K.<.9 k q.} > 3.f   % O X A k.K.K.K.K.K.J.x.K.K.K.K.K.",
"K.K.K.K.K.H.H.-.7.x.K.K.K.H.$.8 1 g 2 . <.f 2 | } 2 A H.J.K.K.K.K.J.J.K.K.K.K.K.",
"K.K.K.K.K.K.K.8.0.K.K.K.K.K.h.C s d s d h.f 2 *.} a D 4.w.J.J.J.K.K.K.K.K.K.K.K.",
"K.K.K.K.K.K.K.L.L.K.K.K.K.6.l.K.K.K.K.L.K.d   .     j 0.4.-.c.K.K.K.K.w.J.K.K.K.",
"K.J.G.K.K.K.K.K.K.K.K.K.K.J.J.K.K.K.K.J.K.K.K.0.J.7.9.c.w.0.c.K.K.K.K.J.5.c.K.K.",
"K.J.:.K.K.K.K.K.K.K.K.K.K.K.K.K.K.K.K.K.K.K.K.K.K.L.K.K.K.K.K.K.K.K.K.K.=.0.K.K."
};
