/* XPM */
static char *_7875a115a2049e986b6eef8ae7a8db0xnd3RYnXJuxDhK0I[] = {
/* columns rows colors chars-per-pixel */
"40 40 149 2 ",
"   c #020202",
".  c #0A0A0A",
"X  c gray8",
"o  c #1C1C1C",
"O  c #242424",
"+  c #2E2E2E",
"@  c #333433",
"#  c gray24",
"$  c #454544",
"%  c #4C4C4C",
"&  c #545454",
"*  c #5C5C5C",
"=  c #646564",
"-  c #6C6C6C",
";  c #70766A",
":  c #767A72",
">  c #7B7C7A",
",  c #69BC3C",
"<  c #72BE3B",
"1  c #4B965A",
"2  c #569E56",
"3  c #54A34F",
"4  c #5BA94B",
"5  c #64AA4D",
"6  c #68AF4C",
"7  c #7DAD46",
"8  c #7AA749",
"9  c #65B443",
"0  c #6AB744",
"q  c #6CB943",
"w  c #6BB24A",
"e  c #72BB44",
"r  c #7BBE46",
"t  c #72B54B",
"y  c #7AB64E",
"u  c #74B949",
"i  c #7DBA4C",
"p  c #63A654",
"a  c #6AAB53",
"s  c #6DA45C",
"d  c #72AD53",
"f  c #7DAF55",
"g  c #72AC59",
"h  c #7AB452",
"j  c #7A8B66",
"k  c #7F817C",
"l  c #7FC045",
"z  c #7FC05F",
"x  c #86CC37",
"c  c #84C73C",
"v  c #82C83A",
"b  c #89CB3C",
"n  c #9FD33D",
"m  c #8EFB3B",
"M  c #85BA47",
"N  c #81B74F",
"B  c #84BD4C",
"V  c #89BE4D",
"C  c #80A457",
"Z  c #82A559",
"A  c #82B654",
"S  c #84B951",
"D  c #8BBB52",
"F  c #8CB858",
"G  c #80807F",
"H  c #838A7A",
"J  c #849375",
"K  c #869871",
"L  c #98BB70",
"P  c #83C246",
"I  c #8CC547",
"U  c #8BCC45",
"Y  c #86C14A",
"T  c #8BC34A",
"R  c #90C746",
"E  c #91C846",
"W  c #91C64B",
"Q  c #91C848",
"!  c #91C653",
"~  c #95C955",
"^  c #93C658",
"/  c #8AE341",
"(  c #9BCB63",
")  c #96C06F",
"_  c #A1CD6E",
"`  c #A5CF75",
"'  c #A6D174",
"]  c #ABDB77",
"[  c #818181",
"{  c #8B8B8B",
"}  c #90908F",
"|  c #949494",
" . c #989897",
".. c #9C9C9C",
"X. c #96A484",
"o. c #9CAC89",
"O. c #A0A09F",
"+. c #ABB69D",
"@. c #ADBB9D",
"#. c #A3A4A3",
"$. c #ACACAC",
"%. c #ADB4A4",
"&. c #B5BBAF",
"*. c #B4B4B3",
"=. c #BCBCBC",
"-. c #A8C88D",
";. c #ACD383",
":. c #B3D78A",
">. c #B2CE91",
",. c #B6D790",
"<. c #BADB92",
"1. c #BDDB9D",
"2. c #BBCFA4",
"3. c #C2DDA3",
"4. c #C4D6BB",
"5. c #C5E0A7",
"6. c #CAE0B1",
"7. c #D4E7BE",
"8. c #C3C3C3",
"9. c #C8C8C7",
"0. c #CCCCCC",
"q. c #D1D7CB",
"w. c #D2DACA",
"e. c #D4D4D4",
"r. c #D9DED2",
"t. c #DCDCDC",
"y. c #DBECC5",
"u. c #DCECC9",
"i. c #DDE9D0",
"p. c #DFE2DC",
"a. c #E2EFD3",
"s. c #E0E0DF",
"d. c #E1E8DB",
"f. c #E4F0D7",
"g. c #E7F1DC",
"h. c #E4E4E4",
"j. c #ECECEC",
"k. c #ECF4E2",
"l. c #EEF1EA",
"z. c #F0F7E8",
"x. c #F3F8ED",
"c. c #F3F5F1",
"v. c #F5F5F4",
"b. c #F7FAF4",
"n. c #F8F9F6",
"m. c #F9F9F9",
"M. c #FAFAFA",
"N. c #FBFBFA",
"B. c #FCFDFC",
/* pixels */
"T T h u T T T T T T T T T T T T T T T T T T T T T T T T T T T T T T T T T T T T ",
"T T A y T T T T T T T T T T T T T T T T T I T T T T T T T T T T I T T T T T T T ",
"T T T T T T T T T T T T T T B T T T T T e B T T T T T T T T T T I T T T T T T T ",
"T T T T T P P T T T T T T T B Y T T T T e a T T T B B I B B T T T T T T T T T T ",
"T T T T W B 6 i T T T T T T T T T T T T T T T T B Y T T T T T T T Y e P T T T T ",
"Y T T T T T h y T T T T T T T r T l i V T T T T T T T I T T T T T W t w B T T T ",
"T T T T I I T W T T T T T T T U v 9 h T T T T T T B T l T T T T T T B h B T T T ",
"T T T T T M T T T T T T T T T I 5 s T T T T T P P W P r Y T T I T T T I T T T T ",
"T T T T T i T T T T T T P P T T h T T T T T T T x I q r P l T T T T T T T T T T ",
"T Y B T T d V T T T T T l 9 T T T T W S S T T T y 0 w 6 u 0 T T T T T T T T T T ",
"T T T T I S Y l T T T V B y V I T T T Y S I I I A h y h i S T T T T T T T R T T ",
"T m / T T Q Y U W T Y T T W I T T T T T ~ 1.B.z.<.Q Q T Q T I T T R T T T T T T ",
"T / U T l l Y l q P e P T T T T T T T ! ;.a.M.b.u.` T Y T T T T T n P B T T T T ",
"T U T Q l u l 1 9 T , e W T T T T Y S _ i.N.M.b.c.y.( T T S T T T B 5 A T T T T ",
"T T T T Y Y Y g B T P Y T T Y l T Y ! ,.c.N.N.B.N.k.;.l ! T T T W u p V T T T T ",
"T T T T T W T W T T T T T T e B T ^ :.g.N.B.b.e.*.p.u.] ) Y T ^ ` _ F M T T T T ",
"T B h T T Y T T T T T T T T B B T F X.$.$.$.#.[ - 8.n.g.y.;.;.3.a.a.%.f M V B T ",
"T T u T T T T T T r Y T T T ! ' <.-.; @ @ $ = > *  .c.B.l.g.k.q.#.e.h.@.C B N V ",
"T T 5 B T T T T T U < i D _ >.o.%.%.k % { - % % @ > 9.j.N.t.| = @  .m.h.+.C M I ",
"T T T T T T T Y V T B D ' y.r.k & O.=.=.8.& X O * 9.9.8.e.- o o % 8.M.v.e.K M D ",
"T T T T Y U T T B ( 5.3.+.*.0.O.#.e.c.9.* X   O | s.G $ & X . $ 8.v.v.N.e.J 7 T ",
"T T T T l i S W ^ 4.x.z.8.G : 8.c.n.e.* .     . # * o . . . $ =.v.m.N.m.t.J 8 I ",
"T T T T P ^ 1.7.@.: } #.O.#.*.=.e.B.=.o         . .     . # *.v.m.m.m.N.l.&.j T ",
"T T ! ( -.4.d.t...& - 9.0.s.v.0.$.h.=.O               X $ ..8.j.m.N.v.m.N.e.> T ",
"T B L 2.H * > ..0.9.0.v.N.v.M.h.$.9.j.| @ @ + + + + $ #.9.h.=.=.M.M.M.M.M.e.> T ",
"T L O.#.[ * * =.v.N.N.m.N.m.M.v.e.*.0.0.*...$.$...*.*.e.j.e.*.#.e.j.h.e.j.=.- T ",
"T w.*.8.8.$.=.0.0.h.0.t.h.9.t.t.8.0.$.=.e.$.0.0.$.e.=.$.e.$.*.=.#.0.4.$.e.$.[ V ",
"T t.$.0.0.$.e.=.*.t.$.8.e.$.0.8.$.h.h.h.j.t.h.h.t.j.s.t.j.s.j.j.e.j.h.t.j.h.t.D ",
"V c.s.j.j.p.j.h.h.j.h.h.j.h.j.j.h.v.h.| { { { { { { { { { { { { { { { { { { { T ",
"T [ [ [ [ [ [ [ [ [ [ [ G [ [ [ [ [ [ [ [ [ [ [ [ [ [ [ [ [ [ [ G G G G [ [ [ T ",
"T { { { { { { { { { { { { { { { { { #.e.t.t.t.t.t.t.t.t.t.t.t.t.t.t.t.t.t.t.t.T ",
"T 2.h.h.h.h.h.h.j.h.h.h.h.h.h.h.h.h.j.N.m.m.m.m.m.m.m.m.m.N.N.N.N.N.N.N.N.k.5.T ",
"T T T V B T T T T T T T g w P T T T T T T T T T T T T I B T B V T I Y T T T T T ",
"T T T T T T B I Y P T I S Y T T T T T T T T T Q Q I T T T T T T T T T T T I T T ",
"I V T T T T P c w h V T T T T T T P Y W T T T T Y T T T T T T T I T A I T T T T ",
"T T T T T I Y 4 p S I I T I T I u u I T T T T T I r T T T T T T T B B T T T T T ",
"T T T T T T T g h T T T T T T T B r T T T T P Y T E b l l P V T T T T T T T T T ",
"T T T T T T I T I T T T T i S I T T T I T I Y 0 u a 3 h e 4 D T T T T P T T T T ",
"T Y P T T T T T T T T T T T T T T T T T T T T h I a s D r d V T T T T r w D B I ",
"T M 5 I T T T T T T T T T T T T T T T T T T T T I W Q I I Q T T T T T T 2 f T T "
};
