/* XPM */
static char *c874b12559894a79d3adc5ff708fd4dceVkTaVItVtQJXP9i[] = {
/* columns rows colors chars-per-pixel */
"35 23 178 2 ",
"   c #030101",
".  c #060000",
"X  c #000404",
"o  c gray2",
"O  c #090606",
"+  c #0F0606",
"@  c #030A0A",
"#  c #0F0909",
"$  c #100000",
"%  c #170505",
"&  c #1B0000",
"*  c #130F0F",
"=  c #1C0808",
"-  c #041C1C",
";  c #210202",
":  c #340606",
">  c #390202",
",  c #1B2727",
"<  c #1D2B2B",
"1  c #252121",
"2  c #293030",
"3  c #420000",
"4  c #420505",
"5  c #480000",
"6  c #460B0B",
"7  c #530000",
"8  c #5A0000",
"9  c #580606",
"0  c #500909",
"q  c #4E1212",
"w  c #4A1D1D",
"e  c #630606",
"r  c #690000",
"t  c #6F0000",
"y  c #6A0505",
"u  c #790202",
"i  c #700909",
"p  c #7A0808",
"a  c #661313",
"s  c #562020",
"d  c #5E2B2B",
"f  c #484747",
"g  c #444949",
"h  c #464F4F",
"j  c #494C4C",
"k  c #4C4D4D",
"l  c #534C4C",
"z  c #524E4E",
"x  c #5F4C4C",
"c  c #7D5151",
"v  c #5B6060",
"b  c #656464",
"n  c #840000",
"m  c #870404",
"M  c #8B0000",
"N  c #900606",
"B  c #A60000",
"V  c #A10606",
"C  c #A80404",
"Z  c #A50909",
"A  c #A90A0A",
"S  c #AF0808",
"D  c #B00505",
"F  c #BD0101",
"G  c #B50909",
"H  c #B80808",
"J  c #AA3939",
"K  c #C00000",
"L  c #C40000",
"P  c #CF0606",
"I  c #CE0808",
"U  c #DC0000",
"Y  c #DA0404",
"T  c #DA0707",
"R  c #D50808",
"E  c #DF0808",
"W  c #E30000",
"Q  c #E60000",
"!  c #E40505",
"~  c #E90000",
"^  c #E90404",
"/  c #E90909",
"(  c #EB0C0C",
")  c #F00000",
"_  c #F30606",
"`  c #F90202",
"'  c #FD0000",
"]  c #FC0606",
"[  c #FE0909",
"{  c #E51515",
"}  c #D43434",
"|  c #EC3131",
" . c #974B4B",
".. c #A84F4F",
"X. c #BB5858",
"o. c #976666",
"O. c #DE4C4C",
"+. c #E34747",
"@. c #E74444",
"#. c #E94040",
"$. c #E74848",
"%. c #E34C4C",
"&. c #E84848",
"*. c #EB4B4B",
"=. c #EA4E4E",
"-. c #CF6767",
";. c #D97171",
":. c #DB7575",
">. c #D17A7A",
",. c #D67878",
"<. c #E16262",
"1. c #E66A6A",
"2. c #E96F6F",
"3. c #E97373",
"4. c #8D9898",
"5. c #9D9D9D",
"6. c #A29696",
"7. c #97A0A0",
"8. c #ACACAC",
"9. c #AEAEAE",
"0. c #B7B7B7",
"q. c #BEBDBD",
"w. c #CE8A8A",
"e. c #CA9595",
"r. c #D89696",
"t. c #E88080",
"y. c #C4A4A4",
"u. c #C7A7A7",
"i. c #C8A8A8",
"p. c #C9AEAE",
"a. c #D3A5A5",
"s. c #DCAFAF",
"d. c #C3B0B0",
"f. c #C6B5B5",
"g. c #CEB2B2",
"h. c #CAB7B7",
"j. c #C7BBBB",
"k. c #D0B5B5",
"l. c #E1A3A3",
"z. c #E6BABA",
"x. c #BFD6D6",
"c. c #C0C0C0",
"v. c #C3C3C3",
"b. c #C4C1C1",
"n. c #C6C6C6",
"m. c #CAC7C7",
"M. c #C1CACA",
"N. c #C7C8C8",
"B. c #C4CECE",
"V. c #CBCBCB",
"C. c #CCC9C9",
"Z. c #CBCCCC",
"A. c gray80",
"S. c #D1CBCB",
"D. c #C6D1D1",
"F. c #C4D3D3",
"G. c #C9D2D2",
"H. c #CDD3D3",
"J. c #CAD6D6",
"K. c #CCD4D4",
"L. c gray82",
"P. c #D2D2D2",
"I. c #D8D7D7",
"U. c #D2DBDB",
"Y. c #D6DFDF",
"T. c #EBC5C5",
"R. c #DDF3F3",
"E. c #E8EAEA",
"W. c #E6F1F1",
"Q. c #E4F8F8",
"!. c #E7FBFB",
"~. c #EAFDFD",
"^. c #F2F7F7",
"/. c #F2F8F8",
"(. c #F5FAFA",
"). c #F2FCFC",
"_. c #F7FCFC",
"`. c #FAFDFD",
/* pixels */
"c.c.c.n.q.n.q.c.c.c.n.c.n.x.c.c.c.n.c.n.q.c.n.c.n.x.c.c.c.n.j.c.q.c.n.",
"V.V.V.V.V.V.A.A.Z.Z.A.n.m.j.V.Z.V.A.n.V.V.V.C.N.C.j.V.V.V.A.V.A.V.V.H.",
"c.n.n.n.x.n.c.n.c.n.Z.n.C.V.N.n.c.V.c.V.n.n.n.c.m.c.V.n.c.N.c.N.n.n.V.",
"n.n.n.V.j.V.V.L.L.n.0.q.6.2 J s.M.n.n.V.n.n.V.n.V.b.n.V.n.Z.N.N.n.n.A.",
"b.j.n.V.b.V.9.5.8.b * - q u n a.B.V.n.V.V.n.V.n.V.N.n.V.N.Z.n.Z.n.n.A.",
"j.x.n.n.j.H.f     . X 3 M ] 6 7.C.n.c.n.n.c.n.c.n.c.n.n.c.N.c.n.n.c.Z.",
"Z.Z.N.Z.m.I.k   @ > C ! [ ) G 9.A.A.V.V.V.V.V.V.A.V.V.V.N.C.V.Z.V.V.A.",
"f.x.j.j.x.L.l & G I y 4 Y Y i 4.n.b.c.n.c.n.n.c.n.c.n.n.c.V.c.n.n.c.V.",
"m.V.V.V.m.J.O.U ] C : F F +   d L.F.c.V.V.n.V.n.A.V.V.V.n.V.n.V.n.V.A.",
"c.n.n.n.c.H. .U _ ! ` _ e @ + a o.l.F.V.c.n.N.n.V.b.N.n.n.V.n.n.n.n.V.",
"q.n.n.n.b.H. .8 p ^ N 4 X o O X $ s ..g.A.V.N.b.m.n.n.n.c.V.c.V.n.n.A.",
"n.V.V.V.n.U.c M V : X X + o o + # . & w X.j.S.F.J.N.m.m.V.A.n.V.V.V.A.",
"c.n.c.n.c.h.} t H V : O X @ X : S = @ . X 9 -.e.w.d.x.x.q.N.c.N.c.c.V.",
"V.Z.V.C.J.:.) ! y D ] m u > X % ~ F ; X o X B ` ' | 2.t.L.A.V.A.V.V.A.",
"c.n.c.n.x.,.W ( E i 6 I [ R Z H / [ 0 @ # @ A R 3 3 5 > b Z.q.n.c.n.V.",
"n.n.V.m.B.;.~ ~ ) W 7 . 3 F L K F r         $ & < , < , 1 7.L.n.V.N.A.",
"n.n.n.m.F.r.@.=.$.=.=.x h l l l l k k k k k g v E.W.W.W.R.z.g.V.n.n.C.",
"q.n.n.V.j.Y.!.!.Q.Q.~./.`./._.`./._./.`.(._.`.).T.1.3.3.2.<.y.B.n.b.V.",
"Z.V.A.A.F.r.#.&.&.&.=.+.&.$.&.&.$.&.+.$.&.&.&.%.| Q ~ { >.h.F.C.V.n.A.",
"c.c.c.b.b.j.y.u.i.y.i.y.i.y.y.y.y.u.y.u.y.y.i.y.p.f.f.j.F.Z.j.n.n.c.V.",
"V.V.V.V.V.Z.F.J.J.G.H.B.K.G.G.K.F.K.F.H.G.A.H.B.K.Z.Z.G.n.A.V.V.V.V.A.",
"c.n.c.n.c.N.j.N.n.c.m.b.n.c.b.n.c.m.c.n.v.b.n.c.n.c.n.c.c.N.c.n.n.c.V.",
"N.V.Z.A.n.C.V.A.A.n.A.C.C.V.V.A.C.C.N.A.Z.N.A.V.A.V.V.V.V.C.V.V.Z.V.A."
};
