/* XPM */
static char *_6cae69d33bf42948547971c01f07343vIhe4yKlT0o5BOKM[] = {
/* columns rows colors chars-per-pixel */
"40 40 211 2 ",
"   c #0E0902",
".  c #0D1A0A",
"X  c #2A1505",
"o  c #042E14",
"O  c #152B11",
"+  c #05391A",
"@  c #173A18",
"#  c #20250D",
"$  c #292411",
"%  c #45270A",
"&  c #552E0C",
"*  c #4E320F",
"=  c #52330F",
"-  c #483512",
";  c #6B370F",
":  c #623C12",
">  c #09451E",
",  c #15421C",
"<  c #19491E",
"1  c #014420",
"2  c #084C22",
"3  c #184C20",
"4  c #0C5225",
"5  c #065A29",
"6  c #195524",
"7  c #155D29",
"8  c #2C5822",
"9  c #3D5824",
"0  c #06602C",
"q  c #1B632A",
"w  c #1D692F",
"e  c #057737",
"r  c #127635",
"t  c #2F6829",
"y  c #326528",
"u  c #336D2C",
"i  c #33722D",
"p  c #377A2F",
"a  c #2D7631",
"s  c #267932",
"d  c #397D33",
"f  c #44551D",
"g  c #644D18",
"h  c #734313",
"j  c #794616",
"k  c #5E621F",
"l  c #4C5023",
"z  c #405B21",
"x  c #425630",
"c  c #6D5C21",
"v  c #4C6524",
"b  c #476C29",
"n  c #546A28",
"m  c #5C6D29",
"M  c #4B742B",
"N  c #45792E",
"B  c #59772B",
"V  c #447931",
"C  c #517C30",
"Z  c #527936",
"A  c #666220",
"S  c #796924",
"D  c #6E7329",
"F  c #6A792B",
"G  c #627F33",
"H  c #814513",
"J  c #924F18",
"K  c #89571A",
"L  c #945118",
"P  c #9C561A",
"I  c #9F581C",
"U  c #A45A1C",
"Y  c #AB5E1B",
"T  c #B3631D",
"R  c #AE6222",
"E  c #B56620",
"W  c #BE6A24",
"Q  c #C26C24",
"!  c #CA7222",
"~  c #0A893F",
"^  c #18893B",
"/  c #1F913F",
"(  c #208338",
")  c #348434",
"_  c #398937",
"`  c #21913E",
"'  c #2B923D",
"]  c #3A963C",
"[  c #3C9B3E",
"{  c #59852F",
"}  c #5D862F",
"|  c #5D9B2F",
" . c #488433",
".. c #528332",
"X. c #5A8632",
"o. c #598B36",
"O. c #5C8B34",
"+. c #469539",
"@. c #4A9538",
"#. c #4C9C3C",
"$. c #549536",
"%. c #589737",
"&. c #63842E",
"*. c #6A832C",
"=. c #65882F",
"-. c #70812C",
";. c #628532",
":. c #658B32",
">. c #6D8C32",
",. c #758D38",
"<. c #629334",
"1. c #6A9434",
"2. c #649C37",
"3. c #67933A",
"4. c #639C3A",
"5. c #6E9C39",
"6. c #749334",
"7. c #789835",
"8. c #719B3A",
"9. c #56A53F",
"0. c #5DA23C",
"q. c #63A63B",
"w. c #6DA33C",
"e. c #6BAB3E",
"r. c #74A33B",
"t. c #70AC3C",
"y. c #7CA83D",
"u. c #62B73F",
"i. c #7BB43E",
"p. c #78B93C",
"a. c #7BC23E",
"s. c #1D9B43",
"d. c #229640",
"f. c #2B9C43",
"g. c #349B40",
"h. c #37A343",
"j. c #4B965A",
"k. c #549C57",
"l. c #669F4A",
"z. c #769B47",
"x. c #6A9E51",
"c. c #47A441",
"v. c #42AD45",
"b. c #4CAB42",
"n. c #55AD43",
"m. c #5DAD42",
"M. c #5AA64A",
"N. c #4DB044",
"B. c #5BB343",
"V. c #5AB745",
"C. c #5CA451",
"Z. c #63AA47",
"A. c #6BAE4E",
"S. c #78A445",
"D. c #7CAC44",
"F. c #64B344",
"G. c #6BB442",
"H. c #63B944",
"J. c #6CBC44",
"K. c #6BB24B",
"L. c #71B441",
"P. c #7DB044",
"I. c #73BC44",
"U. c #7ABD44",
"Y. c #72B44B",
"T. c #7BB64B",
"R. c #74B949",
"E. c #7CB94B",
"W. c #68A756",
"Q. c #6BAB53",
"!. c #72AC53",
"~. c #7DAF55",
"^. c #79B353",
"/. c #75BB51",
"(. c #75C145",
"). c #7DC145",
"_. c #70C248",
"`. c #869732",
"'. c #8A9B33",
"]. c #83A93A",
"[. c #93A436",
"{. c #85B33E",
"}. c #99B53D",
"|. c #89C83C",
" X c #9FD33D",
".X c #81B544",
"XX c #84BB46",
"oX c #88BF47",
"OX c #84BD4B",
"+X c #89BE4B",
"@X c #83AD56",
"#X c #83B554",
"$X c #88B752",
"%X c #84B850",
"&X c #8BBA51",
"*X c #84C346",
"=X c #8CC546",
"-X c #8FC946",
";X c #86C14A",
":X c #8BC34A",
">X c #88CC48",
",X c #90C746",
"<X c #93CA45",
"1X c #98C946",
"2X c #92CC48",
"3X c #ABC541",
"4X c #B3C942",
"5X c #A7D247",
"6X c #BAD547",
"7X c #B7D849",
"8X c #C7DF49",
/* pixels */
":X:X~.J.:X:X:X:X:X:X:X:X:X:X:X:X:X:X:X:X:X:X:X:X:X:X:X:X:X:X:X:X:X:X:X:X:X:X:X:X",
":X:X#XE.:X:X:X:X:X:X:X:X:X:X:X:X:X:X:X:X:X:X:X:X:X:X:X:X:X:X:X:X:X:X:X:X:X:X:X:X",
":X:X:X:X:X:X:X:X:X:X:X:X:X:X;X:X:X:X:X:XI.OX:X:X:X:X:X:X:X:X:X:X-X:X:X:X:X:X:X:X",
":X:X:X:X:X:X*X:X:X:X:X:X:X:XOX;X:X:X:X:XI.!.+X:X:XOXOX=X;X;X:X:X:X:X:X:X:X:X:X:X",
":X:X:X:X:XOXA.E.:X:X:X:X:X:X:X,X:X:X:XXXXX.XXX+XOX:X:X:X:X:X:X:X:X;XI.;X:X:X:X:X",
":X:X:X:X:X:X^.E.:X:X:X:X:X:X:XU.+XL.3.6.>.>.1.5.r.XX+X:X:X:X:X:X:X,XY.K.OX:X:X:X",
":X:X:X:X:X:X:X,X:X:X:X:X:X:X+Xi.| ..;.'.[.[.`.>.>.5.XX).:X:X:X:X:X:X%X^.OX:X:X:X",
":X:X:X:X:XOX:X:X:X:X:X:X:X:XoX} 7  ..X5X8X8X5X.Xr.;.:.e.OX:X:X=X:X:X:X,X:X:X:X:X",
":X:X:X:X:XE.:X:X:X:X:X:X*Xr.5.M q s +.n.|.>Xq.<.<...8 N i.U.:X:X:X:X:X:X:X:X:X:X",
":X;X;X:X:X!.+X:X:X:X:XS.<.:.>.1.C N a ' N.[  .6.`.*.< 3 ..0.+X:X:X:X:X:X:X:X:X:X",
":X:X:X:X:X&X;X;X:X+XXXV i | =.} { } { 9.N.[ w.4X8X3Xz < C >.8..X:X:X:X:X:X,X:X:X",
":X:X:X:X:X-X;X|.,X:X5.7 r p B `.[.`.1.t.H.I.=X1X6X7X].B 7.[.G 8.oX,X:X*X:X:X:X:X",
":X:X:X:X*X*X:XU./.z.=.8 < O.}.7X7X1X>.O.$.q.a.).=X-X>Xp.r.-Xy.&..X XXXOX:X:X:X:X",
":X:X:X:XOXJ.U.j.x.,.[.>.z q.).=Xi.2.>.*.*.*.2.H.J.(.I.(.).).-X&.8.T.A.#X:X:X:X:X",
":X:X:X:XOXOX:Xl.G }.6X1Xe.9.u.0.} 7.}.3X3X}.>._ 9.V._.u.(.(._.{ X.e.W.+X:X:X:X:X",
":X:X:X:X:X:XOXX.<.=X<X,X-Xu.b.C -.{.>X1X2X2X6.@ 6 [ h.N.N.V.v.a O.OX:X:X:X:X:X:X",
":X;X@X:X:X:X.Xy ] I.(.*X=X_.V.$.=.e.).(.).I.=.f z i r ^ f.h.s.i X..X+X+X:X:XOX:X",
":X;XI.:X:X+X+XV 7 ] B.H.n.v.h.B.q.t.*X(.(.t.r.y.{.1.y ) b._ ^ 0.7.,.D.+X:XOX%X:X",
":X:XW.OX:X:X&XB 6 r / f.d.g.c.B.F.0.9.F.G.G.U.U.I.XXw.y.=X8.N i.5X,.3..X:X+X=X:X",
":X:X:X:X:X$Xz.O.@.s _ M.m.e.L.H.#.@.#.u.m.F.I.G.0.I.I.U.XXI.M 6.-X$.X..X:X:X:X:X",
":X:X:X:X:Xz.Z G.F.N w.-X=X*X*Xe.b.b.B.n.H._.H.[ ] u.v.9.t.@.q _ V.s ...X:X:X:X:X",
":X:X:X:XXXZ.i g.' y q.).).L.%.d ' ^ ` s.#.B.h.0 0 p ( ) i q e ~ d.q $.OX:X&X+X:X",
":X:X:X:X*XG.o.s e 5 t $.$.u < 0 ~ 5 + 1 4 ( ~ 5 o o + > 2 0 e e w N Z.OX:X:X:X:X",
":X:X:X:XE.!.E.<.p q 3 M b < , 2 2 O     O > 4 > . . # @ 5 4 7 i O.x.A.OX:X:X:X:X",
":X:X:X:X:X:X:X:XP.o...4.r...Z x $ % & % = = * X X % - 9 M C C r.oX=X:X:X:X:X:X:X",
":X:X:X:X:X:X:X:X:X:XOXQ.OX:X:X@XA g T L I U L ; h g Z S.+X:X:X:X:X:X:X:X:X:X:X:X",
":X;XOX:X=X:X:X:X:X:X:X:X:X:X:X:XJ.A ! ! W W I R Y D i.:X:X:XOX:X:X:X,X:X:X:X*X:X",
":X:X:X:X:X:X:X:X:X:X:X:X:X:XOX:Xp.m ! ! J U R Q T D i.oX:X:X:X:X:X:X:X:X:X:X:X:X",
":X:X:X:X:X:X:X:X:X:X:X:X:X:X:X+XXXk ! Q H L I W T D P.:X+X:X*X:X:X:X:X:X:X:X:X:X",
":X:X:X:X:X:X:X:X;X;X-X:X:X+X:XT.8.c E Y Y T T P U S y.;X:X:Xa.;X:X*X:X:X:X:X:X:X",
":X:X:X*X=X:X:X:X+X&X:X:X1XP.z.F S K j j P I T H j K D F w.T.R.H.E.).(.&X:X:X:X:X",
":X:X:Xa.Y.$X:X:X:X:X:X:X|.M l - j : % = : * h h = : * - z 5.k.C.&XI.F.&X:X:X:X:X",
":X:X:X;X+X:X:X:X:X:X:X:Xx.b v m m v m m n n n m n v m A n r.OXOX:X:X;X:X:X-X:X:X",
":X:X:X:X:X:X*X:X;XOX:X:X+XOXOXOXOX:X:XXX:XXX+X=X=X:X;X;XOX;X:X:X:X:X:X:X:X:X:X:X",
":X;X:X:X:X:X>X|.K.Y.+X:X=X:X:X:X:X;X;X:X:X:X:X:X:X:X:X:X:X:X:X:X:X;XOX:X:X:X:X:X",
":X:X:X:X:X:X*XC.W.OX:X:X:X:X:X:XR.I.:X:X:X:X:X:X:XI.:X-X:X:X:X:X:XOXOX:X:X:X:X:X",
":X:X:X:X:X:X:XW.^.:X:X:X:X:X:X:XOXOX:X=X:X:X*X;X:X X|.).).).&X:X:X:X:X:X:X:X:X:X",
":X:X:X:X:X:X:X:X:X:X:X:X:XE.+X:X:X:X:X-X:X:X;XJ.I.W.C.#XI.M.&X:X:X:X:XOX;X:X:X:X",
":X;X*X:X:X:X:X:X:X:X:X:X:X:X:X:X:X:X:X:X:X:X:XE.:XQ.W.&X).!.+X:X:X:X:X*XJ.$X:X:X",
":X;XZ.:X:X:X:X:X:X:X:X:X:X:X:X:X:X:X:X:X:X:X:X:X:X:X2X:X:X,X:X:X:X:X:X:Xk.@X:X:X"
};
