/* XPM */
static char *_57fe2f929154404aa5e5d475343e004WWGaUzOT3x8xlfDa[] = {
/* columns rows colors chars-per-pixel */
"40 40 222 2 ",
"   c #010A03",
".  c #011203",
"X  c #041A06",
"o  c #161206",
"O  c #001817",
"+  c #33100D",
"@  c #022808",
"#  c #17280A",
"$  c #033406",
"%  c #013B06",
"&  c #0A3A09",
"*  c #11340C",
"=  c #002A1B",
"-  c #143315",
";  c #272108",
":  c #39250E",
">  c #032628",
",  c #003726",
"<  c #16342E",
"1  c #012D35",
"2  c #053437",
"3  c #382927",
"4  c #29312E",
"5  c #4D1510",
"6  c #720D11",
"7  c #513314",
"8  c #6C2A10",
"9  c #511927",
"0  c #51352F",
"q  c #753531",
"w  c #014205",
"e  c #014C07",
"r  c #014A09",
"t  c #015207",
"y  c #015609",
"u  c #055909",
"i  c #005C09",
"p  c #1A4010",
"a  c #284618",
"s  c #2F531B",
"d  c #36571E",
"f  c #00650B",
"g  c #006C0A",
"h  c #03730D",
"j  c #017C0B",
"k  c #186113",
"l  c #266218",
"z  c #3B611E",
"x  c #0F512B",
"c  c #03493D",
"v  c #194438",
"b  c #254B2E",
"n  c #2A5528",
"m  c #3C5926",
"M  c #2D5635",
"N  c #006731",
"B  c #3A662E",
"V  c #4F4B08",
"C  c #6D431E",
"Z  c #425D24",
"A  c #4B5822",
"S  c #515335",
"D  c #496829",
"F  c #516A29",
"G  c #4F742D",
"H  c #53772E",
"J  c #4D6B37",
"K  c #577B33",
"L  c #013B45",
"P  c #1B3F47",
"I  c #0C4D46",
"U  c #0B474B",
"Y  c #014A57",
"T  c #03545E",
"R  c #304F51",
"E  c #246853",
"W  c #035664",
"Q  c #036878",
"!  c #0C757A",
"~  c #4B5141",
"^  c #72544B",
"/  c #5B6255",
"(  c #6F7777",
")  c #8A050F",
"_  c #950912",
"`  c #831118",
"'  c #A70514",
"]  c #B70519",
"[  c #8C1821",
"{  c #A8222F",
"}  c #CC0119",
"|  c #D9021C",
" . c #E5011B",
".. c #F3011F",
"X. c #D60D26",
"o. c #E50622",
"O. c #F90826",
"+. c #E9142C",
"@. c #FE142E",
"#. c #EC1A34",
"$. c #F91934",
"%. c #C12A3A",
"&. c #DB2539",
"*. c #B53645",
"=. c #DF2C44",
"-. c #D73548",
";. c #EF374D",
":. c #FA324A",
">. c #90516B",
",. c #885876",
"<. c #AA606E",
"1. c #EB4657",
"2. c #FC4559",
"3. c #DA5E69",
"4. c #EB5D6A",
"5. c #DA626D",
"6. c #EF6D78",
"7. c #00830C",
"8. c #008C0D",
"9. c #01930E",
"0. c #019B0F",
"q. c #008E13",
"w. c #00A20F",
"e. c #00A90F",
"r. c #00A410",
"t. c #00AB10",
"y. c #00B411",
"u. c #00BA11",
"i. c #5E852F",
"p. c #5C8736",
"a. c #618728",
"s. c #638A35",
"d. c #648C39",
"f. c #68963A",
"g. c #719E3C",
"h. c #5DA339",
"j. c #73A23D",
"k. c #78B63D",
"l. c #01CF14",
"z. c #529751",
"x. c #59A64D",
"c. c #64A84B",
"v. c #77A640",
"b. c #7BAC41",
"n. c #69B347",
"m. c #7CB243",
"M. c #72BB43",
"N. c #7BBE45",
"B. c #77B84B",
"V. c #6AA955",
"C. c #76AD54",
"Z. c #79B353",
"A. c #7EC045",
"S. c #B29801",
"D. c #BBA501",
"F. c #8AB735",
"G. c #85C83C",
"H. c #9FD33D",
"J. c #81B444",
"K. c #84BB47",
"L. c #86B14C",
"P. c #84BD4B",
"I. c #89BE4B",
"U. c #80AF55",
"Y. c #84B653",
"T. c #8ABA51",
"R. c #84C246",
"E. c #8BC447",
"W. c #8BC941",
"Q. c #86C14A",
"!. c #8BC34A",
"~. c #90C747",
"^. c #006E80",
"/. c #027485",
"(. c #047987",
"). c #027C91",
"_. c #D47D82",
"`. c #008094",
"'. c #01869B",
"]. c #188393",
"[. c #008CA2",
"{. c #0D8AA1",
"}. c #0092A8",
"|. c #0898AD",
" X c #019CB5",
".X c #2096AD",
"XX c #01A3BC",
"oX c #14A2B8",
"OX c #7E9A9A",
"+X c #5CA6B1",
"@X c #00A7C2",
"#X c #00AAC4",
"$X c #00AEC9",
"%X c #00B2CD",
"&X c #01B6D2",
"*X c #00B9D6",
"=X c #0ABAD6",
"-X c #01BDDA",
";X c #15B8D1",
":X c #29B1CA",
">X c #4DB3C1",
",X c #02C6DB",
"<X c #17C2DD",
"1X c #02C4E2",
"2X c #01C9E6",
"3X c #01CCEB",
"4X c #01D5F5",
"5X c #01DCF5",
"6X c #00DCFD",
"7X c #25C7E3",
"8X c #31CDE5",
"9X c #01E4FD",
"0X c #53C6D9",
"qX c #6FC4D1",
"wX c #66D4E9",
"eX c #AAB1B1",
"rX c #C88A8B",
"tX c #DA9193",
"yX c #F49397",
"uX c #CDA3AB",
"iX c #FDA8A9",
"pX c #E5C1C8",
/* pixels */
"!.!.Z.B.!.!.!.!.!.!.!.!.!.!.!.!.!.!.!.!.!.!.!.!.!.!.!.!.!.!.!.!.!.!.!.!.!.!.!.!.",
"!.!.Y.B.!.!.!.!.!.!.!.!.!.!.!.!.!.!.!.!.!.!.!.!.!.!.!.!.!.!.!.!.!.!.!.!.!.!.!.!.",
"!.!.!.!.!.!.!.!.!.!.!.!.!.!.!.!.!.!.!.!.M.P.!.!.!.!.!.!.!.!.!.!.~.!.!.Q.!.!.!.!.",
"!.!.!.!.!.R.R.!.!.!.!.!.!.!.P.Q.!.!.!.!.M.C.!.!.!.P.P.~.I.Q.!.!.!.!.!.!.!.!.!.!.",
"!.!.!.!.~.P.V.N.!.!.!.!.!.!.!.!.!.!.!.!.!.I.!.!.I.!.!.!.Q.!.!.!.!.!.M.Q.!.!.!.!.",
"!.!.!.!.!.!.Z.Z.!.!.!.!.!.!.!.N.P.A.N.P.!.!.T.~.!.!.!.!.!.P.!.!.!.!.B.n.I.!.!.!.",
"!.!.!.!.!.!.~.~.!.!.!.!.!.!.I.W.R.n.z.m Z G J.K m Z D z J.!.!.!.!.!.I.Z.P.!.!.!.",
"!.!.!.Q.!.Q.!.!.!.!.!.!.!.!.!.!.G B 8 q ^ ^ K 8 q ^ ^ 6 F F j.K.!.!.!.!.!.!.!.!.",
"!.!.!.!.Q.Z.!.!.!.!.!.!.P.R.K.f.~ S { &._.>.; 6 -.tX3.X.C S K j.P.!.!.!.!.!.!.!.",
"!.Q.Q.!.!.C.!.!.!.!.!.!.N.n.s.7 <.rX;.+.%.0 ; : [ &.$.+.5.tX^ J m.!.!.!.!.!.!.!.",
"!.!.!.!.!.Q.Q.A.!.!.!.T.I.K 7 ] :.:.+._ 8 S.D.D.C ) } | &.:.` 7 b.!.!.!.!.~.E.!.",
"!.!.!.!.!.~.Q.W.~.!.Q.!.~.F 5 o. .|  .| ' V V V ` ' } o.4.=.] 5 A J.!.!.!.!.!.!.",
"!.!.!.!.Q.A.!.A.h.z d Z g.g.A 6 X.1.6.2.o._ ) ) ] | o.O.;.#.O.) : F.A.P.!.!.!.!.",
"!.!.!.!.N.M.p.M n * $ $ d H A )  .2.6.:.@.;.1.#.| #.2.1.$.O.O.' + D x.Y.!.!.!.!.",
"!.!.!.!.P.g.s * & u y y & # + ' ..:.$.$.:.iXiX:.] { _.yX:.@.o.6 # * B J.Q.!.!.!.",
"!.!.!.!.P.Z * r t e e i u % o + ] 5.&.;.yXiXtX*.6 + 0 rXtX=.) ; w w # s.P.!.!.!.",
"!.Q.U.!.P.g.a % r X X e i y $   + 9 : ` 2.tX^ + 5 5 o 3 3 + ; $ @ X   i.K.Q.I.Q.",
"!.Q.M.!.!.!.g.m c '.Q , X X % j f f e # 5 0 7 7 7 o X t       a a.i.K J.Q.I.L.!.",
"!.!.c.P.!.!.!.G U ,X,X2 % f h 7.e.7.j f % $ : : o . f 9.f e i k z A A A f.K.~.!.",
"!.!.!.!.!.Q.!.G I ,X}.x 9.u.r.9.u.e.g w % t $   @ t 8.7.j 8.u.0.u u & u l s.K.E.",
"!.!.!.!.!.!.v.D ! %XL q.u.t.e.e.l.0.N > X % $   e 7.f w g y.u.e.0.e.7.0.j l f.L.",
"!.!.!.!.N.m.m ! ,X,XL 8.j 8.e.j w.% ! ).> > = O y f > = f 0.8.8.u.w.y.8.0.h a J.",
"!.!.!.!.k.s ! ,X5X4X%XI X f w.i % . '.2X@X@X{.{.I c [.'., $ % j e.h y.l.9.t - k.",
"!.!.!.J.M ! %X3X5X9X9X#XL X $ = ).[.*X5X5X=X,.<.9 U &X&X'.).c @ w f y.l.7.- i.K.",
"!.!.!.b.< XX,X1X6X6X6X6X X).^.Q *X3X4X6X<X>.+.' 4 ).&X*X&X*X[.Q T = t f l a.K.!.",
"!.!.m.G o  X3X3X6X6X6X6X6X2X-X1X).Q @X6X:X,.>.+ W &XXX).@X[.}.&XXXY O p p.K.!.!.",
"I.P.s.; 1 ^.-X6X6X6X6X6X6X2X#X[.3 0 .X3X=X:X:XY /.-X}.1  XL Q &X*XXX1 H J.K.E.!.",
"Q.!.s.= /.1 [.4X6X6X6X6X6X*X(.R *.uX0X=X*X&X@X X@X=X}.L ).P Q =X;X|.< d.R.!.!.!.",
"!.!.s.> `.1 Q -X6X6X6X6X9X[.R eXpXwX8X=X*X@XY [.$X#X%X'.L ( >X:X+XR K m.!.!.!.!.",
"!.E.J.K v ( R /.3X4X&X3X6X*XoX0X0X3X=X1X XY Q XX%X%X&X X> 3 P P ~ p.J.!.!.!.!.!.",
"!.!.E.F.F / 3 > W /.@X3X4X4X3X1X1X2X[.W W ^.XX$X$X&X-X#X> b Z m G M.A.T.!.!.!.!.",
"!.Q.I.R.c.J d m D M Q /./././.^.^.).E 4 < >X;X#X$X&XXX/.b p.z.z.Z.M.n.T.!.!.!.!.",
"!.!.!.P.I.m.b.b.b.j.M b b v b b b b p.p.S OX0X7X8X8X|.1 d.I.N.P.!.Q.!.!.!.~.!.!.",
"!.!.!.!.!.!.N.!.I.N.v.g.g.g.g.j.g.g.m.P.d.S eX:XqXqX].- v.!.!.!.!.!.!.!.!.!.!.!.",
"!.!.!.!.!.Q.R.W.n.B.I.!.!.!.!.Q.!.Q.Q.!.N.d.~ 2 P 4 b d.P.!.!.!.!.Q.Y.Q.!.!.!.!.",
"!.!.!.!.!.~.Q.x.V.Y.!.!.!.!.E.!.B.M.!.!.!.!.!.!.~.N.!.T.!.!.!.!.!.P.Q.!.!.!.!.!.",
"!.!.!.!.!.!.Q.V.Z.!.!.!.!.!.!.!.Q.A.!.!.!.!.Q.Q.!.H.G.A.A.A.T.Q.!.!.!.!.!.!.!.!.",
"!.!.!.!.!.!.!.~.!.!.!.!.!.P.P.!.!.!.!.~.!.!.Q.M.B.V.x.Y.M.x.T.!.!.!.!.A.!.!.!.!.",
"!.!.K.!.!.!.!.!.!.!.!.!.!.!.!.!.!.!.!.!.!.!.!.B.I.V.V.T.A.C.P.~.!.!.!.Q.B.T.Q.!.",
"!.R.c.!.!.!.!.!.!.!.!.!.!.!.!.!.!.!.!.!.!.!.!.!.!.~.~.!.!.~.!.!.!.!.!.!.z.Z.!.!."
};
