/* XPM */
static char *b55db97a527442e195d9eff1e2df55b3yqIExEUw1QlgJGGR[] = {
/* columns rows colors chars-per-pixel */
"40 40 225 2 ",
"   c #010101",
".  c #0A0B03",
"X  c #0D0C0A",
"o  c #140905",
"O  c #0A150F",
"+  c #16180B",
"@  c #161616",
"#  c #290B0C",
"$  c #281605",
"%  c #331B00",
"&  c #381A02",
"*  c #231C1C",
"=  c #1B260E",
"-  c #17231B",
";  c #3B2306",
":  c #25261A",
">  c #303113",
",  c #012727",
"<  c #05322E",
"1  c #1D3427",
"2  c #043232",
"3  c #073832",
"4  c #043A3B",
"5  c #232323",
"6  c #2E2626",
"7  c #363433",
"8  c #393C38",
"9  c #4A0607",
"0  c #671111",
"q  c #482806",
"w  c #562B03",
"e  c #553003",
"r  c #543817",
"t  c #683804",
"y  c #773B02",
"u  c #364B1C",
"i  c #394D1D",
"p  c #3C511F",
"a  c #0B433A",
"s  c #154A39",
"d  c #3A5626",
"f  c #254E30",
"g  c #35682D",
"h  c #4A4D18",
"j  c #744205",
"k  c #7D4403",
"l  c #604E12",
"z  c #465B24",
"x  c #4B5530",
"c  c #466527",
"v  c #4C6C2A",
"b  c #526925",
"n  c #53722B",
"m  c #577A2E",
"M  c #4B7B33",
"N  c #537035",
"B  c #323F40",
"V  c #014545",
"C  c #024B49",
"Z  c #1C514A",
"A  c #045856",
"S  c #3D4A4A",
"D  c #295046",
"F  c #375C44",
"G  c #166755",
"H  c #2F6D45",
"J  c #026464",
"K  c #056867",
"L  c #016B6B",
"P  c #0F736D",
"I  c #037575",
"U  c #3C6868",
"Y  c #2E7878",
"T  c #327070",
"R  c #484748",
"E  c #5A5757",
"W  c #645A5A",
"Q  c #66655B",
"!  c #596262",
"~  c #666464",
"^  c #727071",
"/  c #777575",
"(  c #99060E",
")  c #B9020A",
"_  c #813F00",
"`  c #EC0511",
"'  c #844502",
"]  c #8E4B02",
"[  c #915006",
"{  c #965304",
"}  c #A75A04",
"|  c #AB5D04",
" . c #AF6106",
".. c #B56305",
"X. c #A56A2B",
"o. c #C86601",
"O. c #D86F02",
"+. c #DD7501",
"@. c #E67701",
"#. c #C57E2B",
"$. c #847677",
"%. c #987E7C",
"&. c #5D8732",
"*. c #64802E",
"=. c #648C36",
"-. c #679337",
";. c #6D9A3A",
":. c #729F3D",
">. c #74A43C",
",. c #66B23D",
"<. c #7BC23E",
"1. c #0D847C",
"2. c #5A8D41",
"3. c #519A58",
"4. c #688D40",
"5. c #6C9A43",
"6. c #59A44F",
"7. c #66AB4A",
"8. c #77A744",
"9. c #7AAC42",
"0. c #67B345",
"q. c #7DB344",
"w. c #73BB43",
"e. c #7ABE46",
"r. c #74B44A",
"t. c #7DBA4B",
"y. c #69A855",
"u. c #74AD55",
"i. c #7AB253",
"p. c #7DC044",
"a. c #C9883D",
"s. c #90CD3C",
"d. c #A3835D",
"f. c #83B545",
"g. c #84BA46",
"h. c #85BD4B",
"j. c #89BE4B",
"k. c #84B753",
"l. c #8BBB51",
"z. c #819A61",
"x. c #9FA470",
"c. c #E39F50",
"v. c #DDA96E",
"b. c #84C245",
"n. c #8DC646",
"m. c #86C14A",
"M. c #8BC34A",
"N. c #90C747",
"B. c #068585",
"V. c #018C8D",
"C. c #029494",
"Z. c #099D96",
"A. c #029B9B",
"S. c #179491",
"D. c #398382",
"F. c #2C9D94",
"G. c #01A3A3",
"H. c #0CA2A2",
"J. c #01ABAA",
"K. c #03B6B6",
"L. c #2CB2AF",
"P. c #498988",
"I. c #708F8E",
"U. c #5BBDBC",
"Y. c #66A9A9",
"T. c #05C2BF",
"R. c #02C4C4",
"E. c #02CDCD",
"W. c #09D0CF",
"Q. c #02D4D4",
"!. c #09D6D6",
"~. c #01DCDB",
"^. c #1EDFDF",
"/. c #26C9C8",
"(. c #00E0DF",
"). c #01E3E3",
"_. c #01EBEB",
"`. c #0BE8E8",
"'. c #03F1EE",
"]. c #01F4F4",
"[. c #0AF7F7",
"{. c #00FAFA",
"}. c #19F2F2",
"|. c #36E6E6",
" X c #2DF1F1",
".X c #2DF9F9",
"XX c #4DC9C9",
"oX c #42F0F0",
"OX c #5AFAFA",
"+X c #78EEEE",
"@X c #949292",
"#X c #979796",
"$X c #A79898",
"%X c #B19F9F",
"&X c #A9B492",
"*X c #99AFAF",
"=X c #A7A7A6",
"-X c #B7AEAE",
";X c #A9B2B2",
":X c #D0B7B7",
">X c #E4BABA",
",X c #B6CB9F",
"<X c #DDC4A7",
"1X c #8BCECE",
"2X c #84D5D5",
"3X c #99EBEA",
"4X c #93F3F3",
"5X c #AAEAEA",
"6X c #A6F9F9",
"7X c #B6FBFB",
"8X c #C4C2C2",
"9X c #D6CCCC",
"0X c #EDCDCD",
"qX c #EBD8D8",
"wX c #DBE4CD",
"eX c #D3EEEE",
"rX c #C5FAFA",
"tX c #E4E3E3",
"yX c #EAE9E9",
"uX c #F3E8E8",
"iX c #F0F2EE",
"pX c #E8F6F6",
"aX c #F2F3F2",
"sX c #F7FFFF",
"dX c #FDFDFD",
/* pixels */
"M.M.u.r.M.M.M.M.M.M.M.M.M.M.M.M.M.M.n.M.M.M.M.M.M.M.M.M.M.M.M.M.M.M.M.M.M.M.M.M.",
"M.M.k.t.n.n.M.M.M.M.M.M.M.M.M.M.M.M.M.M.M.M.M.M.M.M.M.m.M.M.M.M.M.M.M.M.M.M.M.M.",
"M.M.M.M.M.M.M.M.M.M.M.M.M.M.j.M.M.M.M.8.g a 3 =.f 4 a ;.h.n.M.M.N.M.M.M.M.M.M.M.",
"M.M.M.M.M.b.b.M.M.M.M.M.M.M.h.j.M.j.9.d P T.L.F F./.L.x 5.t.m.M.M.M.m.M.M.M.M.M.",
"M.M.M.M.N.k.7.t.M.M.M.M.M.M.b.b.M.>.z + B. X4X*X3X6X6X#Xx -.j.N.M.M.p.b.M.M.M.M.",
"M.M.M.M.M.M.i.t.M.M.M.M.M.g.=.d c u +   1.5XpX#X,X&X@XiXf N j.j.M.M.r.7.l.M.M.M.",
"M.M.M.M.M.M.N.M.M.M.n.j.q.m l t t e + R :XaXtX5 ;.m 5 iX7 n j.N.M.n.k.i.m.M.M.M.",
"M.M.M.M.M.m.M.M.M.M.M.n.:.h { +.O.] $ #XuXdXyXE x.z.E iX7 z ;.:.b.M.M.n.M.M.M.M.",
"M.M.M.M.M.t.M.M.M.M.M.M.;.> ] @.} ; * =XaXdXsX9XwXwX9XtXB - s u 8.m.M.M.M.M.M.M.",
"M.M.m.M.M.u.m.M.M.M.m.l.-.: $ ; D L.*X~ =XaXdXdX/ #XiXS H.K.K.A.d ;.m.m.M.M.M.M.",
"M.M.M.M.M.m.M.b.m.M.M.8.x j & 4 J.}.OXL.T ! ~ W B.Y Q C.`.OX6X+XS.H -.m.M.n.M.M.",
"M.M.M.M.M.N.m.b.M.j.;.b k o.t L ).[.[.oXY.~ ~ G W.K.P ].[.U.*X+XZ.P H m M.M.M.M.",
"M.M.M.M.p.m.M.p.w.e.v q +.+.e L ).[..X7XiXyXeX^._._._.].].B.P W.A J.B.X M.M.M.M.",
"M.M.M.M.p.r.r.3.0.g.g & +.o.w A R.|.7XsXdXdXpX^.~._.{.{.[.'._.[.'.(.I   M.M.M.M.",
"M.M.M.M.M.m.M.u.g.M.9.n $ $ o A K.|.7XdXdXdXtXZ J._._.{.{.{.[.{.{._.I   M.M.M.M.",
"M.M.M.M.M.M.M.M.M.M.n.q.c +   J Q.|.rXdXdXdXuX5 V.).)._.'.].{.{.{._.L   M.M.M.M.",
"M.j.i.M.M.M.M.m.M.M.M.M.;.> & F G./.4XpXaXqX@XX V.~.~.).)._.].'.].~.L   n.j.h.M.",
"M.h.w.M.M.M.M.M.N.e.b.j.8.h [ _ 4 A.R.2XuX%X6 o V.Q.E.(.(.).~.(.~.T.K = M.j.h.M.",
"M.M.7.h.M.M.M.M.M.n.,.h.h.>.i o o 2 J.Q.2XqX>X7 B.Q.Q.Q.Q.~.~.Q.T.G v h.M.M.M.M.",
"M.M.M.M.M.M.M.M.j.j.t.9.f.:.u e y 1 J.~.2XqXqX:XR I Q.E.E.!.A.C Z M 9.M.M.M.M.M.",
"M.M.M.M.n.M.M.M.h.g.-.z z h = & x P R.(.2X0X>X%.* , L J J K H c M 9.M.M.M.M.M.M.",
"M.M.M.M.p.h.h.M.g.-.r 0 9 o     C E.`.oX5XuX9X*     . i u u m j.M.b.m.M.M.k.M.M.",
"M.M.M.M.h.0.9.=.=.r ( ` ( # , V I E.`.6XdXdXtX5 7 D s =.g.M.j.M.M.p.r.m.M.M.M.M.",
"M.M.M.M.5.2.M + f 0 ) ( 5 4 C.~.Q.!. X7XdXdXyX5 $.2X/.s 2.9.M.M.M.u.7.m.M.M.M.M.",
"M.M.M.M.> f 1 , A.B 9 B C.J.!.].K.D.1XpXdXdXtX5 7 I.4XG.s *.M.M.M.M.M.N.M.M.M.M.",
"M.M.M.M.  A C.1.L , V K._.].'.K.T #XtXdXdXdXtX5 X 6 I.'.3 v m.n.M.M.M.M.M.M.M.M.",
"M.M.m.M.  P.OXR.O A K.{.}.OX+XXXY #XtXdXdXdXiX5   , C.'.3 v h.M.M.M.M.M.M.M.M.M.",
"M.M.M.M.  @XrXXXO G.{.{..XrXsXU.A S 8XdXdXtX#X@ 4 A.].'.3 n M.M.M.M.M.M.M.m.M.M.",
"M.M.M.M.= $.yXeX@ G.{.{..X7XrXY.2 8 8XsXdX-X8 X Z._.].'.3 n b.M.M.M.M.M.M.M.M.M.",
"M.M.M.M.:.N ^ yX5 V._.].[..X X^.I S 8XdXdX=X@ . A.(.(.Q.< n <.j.M.p.M.M.M.M.M.M.",
"M.M.N.n.M.d R aX;XU V.].].].'.A.U ;XyXdX;X8 .   < V C C M 8.r.,.e.p.p.l.M.M.M.M.",
"M.M.N.,.r.4.N / ^ * , J J L J U %XuXdXdX/ : c v v v v v 7.t.3.6.l.p.7.M.M.M.M.M.",
"M.M.M.m.h.g.=.O $ & q & * @ 7 $X9X%X$X$XQ m 9.g.h.g.g.g.m.M.h.l.M.m.m.M.M.M.M.M.",
"M.M.M.M.M.n.&.o [  . . .[ ; $.>X%.6 o o z f.m.n.n.n.j.M.M.M.M.M.n.M.M.M.M.M.M.M.",
"M.m.M.M.M.M.-.. [ ......] o o o q j %     > f.l.M.n.M.M.M.M.M.M.M.m.k.b.M.M.M.M.",
"M.M.M.M.b.n ; k { { | a.<XX.# & ] | { ' x.$Xx 9.M.w.M.M.M.M.M.M.M.m.m.M.M.M.M.M.",
"M.M.M.M.M.p % | } |  .#.v.X.w w }  .....c.d.: ,.M.s.s.w.e.p.l.m.M.M.M.M.M.M.M.M.",
"M.M.M.M.M.z $ j t k ' ' _ y $ % t y k ' ' w + -.e.y.6.k.w.6.l.M.M.M.M.p.M.M.M.M.",
"M.M.m.M.M.p                                 X 8.j.y.u.l.b.u.j.M.M.M.M.m.r.l.M.M.",
"M.m.6.M.M.M.M.M.M.M.M.M.M.M.M.M.M.M.M.M.M.M.M.M.N.N.M.M.M.N.n.M.M.M.M.M.3.i.M.M."
};
